<svg width="200" height="50" viewBox="0 0 1000 250" fill="none" xmlns="http://www.w3.org/2000/svg"><mask id="a" style="mask-type:alpha" maskUnits="userSpaceOnUse" x="0" y="0" width="1000" height="250"><path fill="#D9D9D9" d="M0 0h1000v250H0z"/></mask><g mask="url(#a)"><mask id="b" fill="#fff"><path d="M47.798-137.262a250.002 250.002 0 0 0 390.369 300.821 250 250 0 0 0 58.247-80.573L268.733-20.267z"/></mask><path d="M47.798-137.262a250.002 250.002 0 0 0 390.369 300.821 250 250 0 0 0 58.247-80.573L268.733-20.267z" fill="#D99090" fill-opacity="1" stroke="#000" stroke-width="56" mask="url(#b)"/><mask id="c" fill="#fff"><path d="M278.67-147.389a250 250 0 0 0-16.864 194.14 249.999 249.999 0 0 0 465.48 26.107L499.605-30.395z"/></mask><path d="M278.67-147.389a250 250 0 0 0-16.864 194.14 249.999 249.999 0 0 0 465.48 26.107L499.605-30.395z" fill="#D4D594" stroke="#000" stroke-width="56" mask="url(#c)"/><mask id="d" fill="#fff"><path d="M507.67-184.389a249.998 249.998 0 0 0 403.809 287.455 250 250 0 0 0 61.678-222.37L728.605-67.395z"/></mask><path d="M507.67-184.389a249.998 249.998 0 0 0 403.809 287.455 250 250 0 0 0 61.678-222.37L728.605-67.395z" fill="#8AD1E3" stroke="#000" stroke-width="56" mask="url(#d)"/></g></svg>