<svg width="24px" height="24px" viewBox="0 0 9 9" fill="none" xmlns="http://www.w3.org/2000/svg">
    <path d="M4.5 0.75C2.434 0.75 0.75 2.434 0.75 4.5s1.684 3.75 3.75 3.75 3.75 -1.684 3.75 -3.75S6.566 0.75 4.5 0.75m1.26 4.613c0.109 0.109 0.109 0.289 0 0.398 -0.056 0.056 -0.128 0.083 -0.199 0.083s-0.143 -0.026 -0.199 -0.083l-0.862 -0.862 -0.862 0.862c-0.056 0.056 -0.128 0.083 -0.199 0.083s-0.143 -0.026 -0.199 -0.083a0.283 0.283 0 0 1 0 -0.398l0.862 -0.862 -0.862 -0.862a0.283 0.283 0 0 1 0 -0.398c0.109 -0.109 0.289 -0.109 0.398 0l0.862 0.862 0.862 -0.862c0.109 -0.109 0.289 -0.109 0.398 0s0.109 0.289 0 0.398l-0.862 0.862z" fill="#b54f4f"/>
</svg>