<svg xmlns="http://www.w3.org/2000/svg" version="1.1" xmlns:xlink="http://www.w3.org/1999/xlink" xmlns:svgjs="http://svgjs.dev/svgjs" width="1440" height="600" preserveAspectRatio="none" viewBox="0 0 1440 600">
    <g mask="url(&quot;#SvgjsMask1043&quot;)" fill="none">
        <path d="M720 799.73C844.75 799.43 934.27 690.52 1018.49 598.49 1097.57 512.06 1168.32 416.82 1177.27 300 1186.92 174 1162.85 35.48 1067.96-47.96 976.33-128.54 841.96-106.57 720-102.05 604.84-97.77 484.75-97.66 396.97-23.03 302.96 56.9 242.67 176.68 247.23 300 251.65 419.88 337.57 512.84 420.02 599.98 505.83 690.69 595.12 800.04 720 799.73" fill="rgba(247, 201, 201, 0)"></path>
        <path d="M720 623.36C800.72 623.16 858.64 552.69 913.14 493.14 964.31 437.21 1010.09 375.59 1015.88 300 1022.13 218.47 1006.55 128.84 945.15 74.85 885.86 22.71 798.91 36.92 720 39.85 645.49 42.62 567.78 42.69 510.98 90.98 450.15 142.7 411.14 220.21 414.09 300 416.95 377.57 472.54 437.72 525.89 494.11 581.42 552.8 639.19 623.55 720 623.36" fill="rgba(247, 201, 201, 1)"></path>
        <path d="M720 446.98C756.69 446.89 783.02 414.86 807.79 387.79 831.05 362.37 851.86 334.36 854.49 300 857.33 262.94 850.25 222.2 822.34 197.66 795.39 173.96 755.87 180.42 720 181.75 686.13 183.01 650.81 183.04 624.99 204.99 597.34 228.5 579.61 263.73 580.95 300 582.25 335.26 607.52 362.6 631.77 388.23 657.01 414.91 683.27 447.07 720 446.98" fill="rgba(72, 143, 219, 0)"></path>
    </g>
    <defs>
        <mask id="SvgjsMask1043">
            <rect width="1440" height="600" fill="#ffffff"></rect>
        </mask>
    </defs>
</svg>