<svg width="1920" height="1080" viewBox="0 0 1920 1080" fill="none" xmlns="http://www.w3.org/2000/svg"><g clip-path="url(#a)"><path fill="#fff" d="M0 0h1920v1080H0z"/><path stroke="#F2F2F2" d="M192.5-.001 194.583 1080M1344.5-.001 1346.58 1080M768.5-.001 770.583 1080M576.5-.001 578.583 1080M1536.5-.001 1538.58 1080M1728.5-.001 1730.58 1080M384.5-.001 386.583 1080M1152.5-.001 1154.58 1080M960.5-.001 962.583 1080"/><g clip-path="url(#b)"><path d="M418 937.85V943h-25.161l-8.578-8.866-8.577 8.866H351v-5.15h23.803l-20.882-11.73 2.38-4.466 21.324 11.977-12.566-21.362 4.244-2.632 12.718 21.619V906h4.958v25.211l12.64-21.614 4.251 2.62-12.512 21.396 21.294-12.035 2.391 4.46-20.898 11.812z" fill="#EBEBEB"/></g><g clip-path="url(#c)"><path d="M1569 180.85V186h-25.16l-8.58-8.866-8.58 8.866H1502v-5.15h23.8l-20.88-11.73 2.38-4.466 21.32 11.977-12.56-21.362 4.24-2.632 12.72 21.619V149h4.96v25.211l12.64-21.614 4.25 2.62-12.51 21.396 21.29-12.035 2.39 4.46-20.89 11.812z" fill="#EBEBEB"/></g><g clip-path="url(#d)" fill="#EBEBEB"><path d="M755 150h29l-2.055 1.161c-5.478 3.095-9.993 7.719-13.025 13.339-1.862-5.524-5.711-10.106-10.755-12.806zm0 14.5h29l-2.055 1.161c-5.478 3.095-9.993 7.719-13.025 13.339-1.862-5.524-5.711-10.106-10.755-12.806zm0 14.5h29l-2.055 1.161c-5.478 3.095-9.993 7.719-13.025 13.339-1.862-5.524-5.711-10.106-10.755-12.806zm0 14.5h29l-2.055 1.161c-5.478 3.095-9.993 7.719-13.025 13.339-1.862-5.524-5.711-10.106-10.755-12.806z"/></g><g clip-path="url(#e)" fill="#EBEBEB"><path d="M1168 954h-29l2.05-1.161c5.48-3.095 10-7.719 13.03-13.339 1.86 5.524 5.71 10.106 10.76 12.806zm0-14.5h-29l2.05-1.161c5.48-3.095 10-7.719 13.03-13.339 1.86 5.524 5.71 10.106 10.76 12.806zm0-14.5h-29l2.05-1.161c5.48-3.095 10-7.719 13.03-13.339 1.86 5.524 5.71 10.106 10.76 12.806zm0-14.5h-29l2.05-1.161c5.48-3.095 10-7.719 13.03-13.339 1.86 5.524 5.71 10.106 10.76 12.806z"/></g><path d="M945.68 537.135c0 2.724 1.658 5.076 4.045 5.755a12.55 12.55 0 0 0 11.787 8.294c5.274 0 9.998-3.329 11.786-8.294 2.387-.679 4.045-3.03 4.045-5.755 0-1.839-.789-3.592-2.116-4.717l.194-1.045c0-.39-.027-.77-.057-1.151l-.025-.304-.259.161c-3.618 2.244-9.479 3.247-13.683 3.247-4.084 0-9.831-.962-13.465-3.113l-.264-.069-.022.299c-.023.309-.045.616-.042.965l.191 1.013c-1.326 1.125-2.115 2.877-2.115 4.714m28.056 17.522c-1.129-.699-2.195-1.36-3.058-2.042l-.11-.087-.114.081c-.807.576-3.657 3.536-5.979 5.997l-1.283-2.493.668-.477v-2.444h-4.696v2.444l.668.477-1.284 2.494c-2.323-2.462-5.174-5.422-5.98-5.998l-.114-.081-.11.087c-.863.682-1.93 1.343-3.059 2.042-3.519 2.181-7.507 4.652-7.507 9.064 0 2.607 6.122 6.279 19.733 6.279s19.733-3.672 19.733-6.279c0-4.412-3.989-6.883-7.508-9.064" fill="#F2F2F2"/><path d="M947.43 525.448c0 2.186 6.576 4.958 13.967 4.958s13.968-2.772 13.968-4.958v-3.012l5.098-2.075v6.558a1.245 1.245 0 0 0-1.051 1.225c0 .528.348.988.849 1.154l-1.014 6.693h4.77l-1.014-6.693c.501-.166.848-.627.848-1.154 0-.621-.46-1.136-1.057-1.227l-.024-7.874c.042-.073.042-.149.042-.189s0-.114-.018-.114c-.031-.287-.236-.541-.535-.662l-1.35-.554-17.555-7.145a5.23 5.23 0 0 0-3.912 0l-18.907 7.699c-.335.138-.552.443-.552.776s.216.638.553.777l6.894 2.804z" fill="#F2F2F2"/></g><defs><clipPath id="a"><path fill="#fff" d="M0 0h1920v1080H0z"/></clipPath><clipPath id="b"><path fill="#fff" d="M351 906h67v37h-67z"/></clipPath><clipPath id="c"><path fill="#fff" d="M1502 149h67v37h-67z"/></clipPath><clipPath id="d"><path fill="#fff" d="M755 150h29v58h-29z"/></clipPath><clipPath id="e"><path fill="#fff" d="M1168 954h-29v-58h29z"/></clipPath></defs></svg>