<svg width="852" height="736" viewBox="0 0 852 736" fill="none" xmlns="http://www.w3.org/2000/svg">
<path d="M508.073 28.7673C518.413 30.2466 528.458 33.3369 537.842 37.9257L762.981 148.025C790.75 161.604 810.678 187.263 816.962 217.528L849.75 375.441C852.229 387.38 852.504 399.671 850.561 411.708L818.149 612.484C811.454 653.955 779.554 686.821 738.301 694.75L533.031 734.203C526.811 735.398 520.491 736 514.157 736H266.223C248.366 736 230.833 731.218 215.449 722.151L110.574 660.341C92.0216 649.406 77.4945 632.775 69.1538 612.921L8.30519 468.079C3.15351 455.816 0.5 442.649 0.5 429.348V258.808C0.5 246.378 2.81727 234.058 7.33304 222.477L60.6628 85.7174C73.8357 51.9367 104.262 27.9328 140.181 22.984L293.089 1.9166C302.318 0.645104 311.679 0.669389 320.901 1.98875L508.073 28.7673Z" fill="url(#paint0_linear_24_2)"/>
<defs>
<linearGradient id="paint0_linear_24_2" x1="427" y1="0" x2="427" y2="736" gradientUnits="userSpaceOnUse">
<stop stop-color="#B7F9D9"/>
<stop offset="1" stop-color="#6C9380" stop-opacity="0"/>
</linearGradient>
</defs>
</svg>
