<svg xmlns="http://www.w3.org/2000/svg" width="423.986" height="74.836" viewBox="-258 -213 423.986 74.836">
  <path fill="#2D2223" d="M-19.434-152.13c-3.267.005-6.188.253-9.113.468-6.506.476-13.003 1.116-19.515 1.353-2.549.092-5.132.127-7.678.252-3.661.18-7.331.301-10.994.502-2.838.157-5.725.071-8.271-1.61-.685-.449-1.511-.666-2.178-1.199-.978-.78-1.15-1.649-.395-2.658.756-1.006 1.888-1.415 3.011-1.821 1.443-.522 2.9-1.015 4.171-2.041-.841-.815-1.894-1.044-2.845-1.262-5.481-1.253-10.865-2.868-16.293-4.312-5.288-1.404-10.718-2.337-15.806-4.443-2.303-.951-4.656-1.801-6.743-3.213-2.355-1.594-2.261-4.047.255-5.354 3.762-1.955 7.856-3.019 11.853-4.344 2.663-.886 5.336-1.73 8.079-2.38 2.417-.571 4.886-.629 7.308-1.086.659-.125 1.311-.31 2.045-.483-.5-.896-1.358-1.344-2.104-1.821-1.313-.847-2.506-1.818-3.688-2.828-.681-.58-.789-1.392-.994-2.113-.121-.428.356-.946.989-1.103 2.032-.497 4.101-.514 6.167-.456 3.882.107 7.762.241 11.646.217a213.13 213.13 0 0115.473.489c4.681.312 9.284 1.031 13.911 1.664 1.191.162 1.391-.081.989-1.214-.428-1.213-1.23-2.305-1.049-3.715.191-1.489.784-1.938 2.186-1.596 3.744.916 7.5 1.783 11.242 2.705 4.574 1.129 9.163 2.183 13.79 3.071 2.252.435 4.485.957 6.733 1.409.327.064.797.214 1.01-.087.192-.274.014-.658-.158-1.004-1-2.013-1.938-4.066-3.331-5.843-.435-.553.14-.683.216-.987.14-.552.583-.836 1.214-.89 1.86-.151 3.623.412 5.379.81 3.676.834 7.307 1.856 10.94 2.86 1.521.418 3 .979 4.495 1.481.521.177 1.017.351 1.593.147.448-.155.868.061 1.163.416.329.396.237.808-.056 1.199-1.396 1.873-1.481 4.207-1.822 6.328-.254 1.573-.145 3.381.104 5.047.362 2.438.074 4.851.013 7.272-.174 6.533.25 13.045.753 19.551.18 2.33.506 4.663 1.367 6.872.17.438.113.874.027 1.295-.134.657-.562.885-1.09.415-.546-.485-1.274-.872-1.098-1.862.162-.899-.447-1.076-1.194-.981-2.398.301-4.802.585-7.199.907-3.121.421-6.246.828-9.357 1.318-3.597.567-7.126 1.504-10.749 1.955-2.714.34-5.398.579-8.062-.332-.411-.142-.807-.315-1.2-.48-1.286-.535-1.492-1.436-.607-2.54.511-.64 1.197-1.023 1.944-1.318 1.309-.517 2.199-1.577 3.523-2.627zm1.219 1.67l.003-.002c-.292.023-.46.188-.533.464l-.201.217c-.438.106-.726.392-.94.771l.002-.004c-.845.332-1.494 1.006-2.381 1.293-.396.129-.354.526.102.637 2.261.544 4.524 1.089 6.828.185l2.181-.203c1.331.041 2.615-.168 3.837-.715.248-.037.497-.071.746-.108.083-.033.166-.063.249-.099 2.49-.221 4.901-.901 7.405-1.144 4.179-.401 8.319-1.188 12.479-1.812.796.025 1.556.02.935-1.131l-.094-.717c.186-1.033.123-2.055-.13-3.072-.092-.363-.17-.732-.637-.717-.821.032-1.668-.217-2.459.196l-.479.086c-1.376-.048-2.739.007-4.064.437-4.053.316-8.042 1.059-12.036 1.789-1.258.229-2.466-.327-3.335-1.267-.838-.903.271-1.571.49-2.351a.972.972 0 00.024-.117c.357-.438.916-.736.971-1.391.188-.043.364-.105.434-.316.086-.158.172-.316.257-.477.532-.729-.095-.938-.562-1.062a12.011 12.011 0 00-2.224-.337c-2.346-.15-4.688.057-7.009.305-.924.1-1.994-.205-2.812.549l-.309-.006-.023-.013c-.602-.511-1.171-.14-1.747.058-1.197.094-2.395.188-3.59.28l-.46.021c-.647-.07-1.295-.133-1.931.08-.188-.108-.356-.1-.493.094-.796.025-1.592.057-2.389.086-2.646.15-5.304.24-7.945.475-1.919.17-3.879.023-5.752.627l-.465.03a.545.545 0 00-.601.196c-.603.021-1.2.049-1.799.07-.784-.031-1.574-.009-2.353-.104-2.331-.283-4.601-.818-6.772-1.734-.741-.312-.808-.779-.468-1.432.216-.41.539-.646.942-.859 1.048-.555 2.1-1.113 3.092-1.76 1.085-.707 1.065-1.486.003-2.184-1.1-.721-2.287-1.223-3.547-1.641-2.495-.832-5.047-1.42-7.593-2.041-3.361-.82-6.784-1.289-10.2-1.797l-.105-.02c-.112-.041-.222-.098-.335-.119-4.005-.828-7.97-1.809-11.867-3.041-.61-.193-1.229-.391-1.721-.811-.438-.375-1.036-.709-.84-1.447.199-.744.744-1.031 1.479-1.188 2.794-.586 5.565-1.328 8.415-1.574 3.053-.266 5.979-1.319 9.061-1.35 1.731-.111 3.486-.068 5.171-.521 1.207-.321 1.288-.709.556-1.612-.96-1.185-2-2.306-2.789-3.62-.033-.232-.066-.467-.101-.7l.063-.471c.409-.793 1.088-.75 1.815-.604 1.39.274 2.78.53 4.17.795.971.174 1.938.349 2.906.521 1.015.698 2.224.438 3.329.679l.653.119c.118.282.268.46.558.166l1.408.381c.646.167 1.284.454 1.913.569 1.458.268 2.806 1.096 4.354.885.108-.021.22-.037.327-.058.248.461.646.578 1.131.488 1.152.282 2.299.606 3.459.84 3.029.604 6.042 1.265 9.036 2.037 1.712.44 3.483.84 5.3.596.588-.077 1.207-.198 1.12-.932-.086-.726-.021-1.512-.492-2.158-.015-.162-.026-.323-.043-.485.021-.242.04-.484.062-.728.241-.412.482-.824.725-1.236.957-.422 1.933-.245 2.908-.09 2.17.349 4.334.729 6.466 1.268l.957.062c2.735 1.123 5.688 1.317 8.529 1.979.315.488.809.547 1.326.546l.713.093c.113.186.28.229.479.186.316.027.636.057.95.086 1.655.938 3.57.938 5.342 1.465 1.937.576 2.767-.338 2.217-2.332-.224-.805-.618-1.592-.672-2.404-.146-2.203.632-3.64 2.935-2.812.696.249 1.461.309 2.193.457.237.021.478.048.716.07.879.588 1.964.547 2.909.949.302.129.68.063.754-.449.18-1.229.562-2.412.965-3.586.415-1.215.225-1.584-1.036-1.873-.229-.054-.471-.047-.708-.066v.002a19.82 19.82 0 00-6.251-1.905c-.192-.263-.465-.231-.737-.2-.561-.449-1.207-.644-1.919-.646-.354-.061-.712-.117-1.067-.176-.425-.469-.949-.641-1.567-.547a40.07 40.07 0 00-.467-.121c-.185-.274-.455-.238-.728-.209-.143-.016-.286-.029-.429-.047-1.072-.67-2.335-.621-3.509-.896-.461-.108-1.174-.294-1.447.114-.328.49.222.994.492 1.459.018.027.064.041.101.06l.005.007c.317.416.41.992.912 1.277.033.133.066.264.103.396-.067.34-.021.636.327.808.098.295.251.545.548.679.181.997.699 1.943.468 3.006-.339.121-.467.389-.503.719-1.996.729-3.931.117-5.87-.282-1.472-.306-2.931-.671-4.396-1.011-.16-.021-.32-.038-.479-.057-.729-.47-1.562-.474-2.381-.531-.86-.271-1.688-.65-2.604-.737-2.029-.195-3.939-.938-5.938-1.331-3.974-.778-7.828-2.122-11.854-2.725-.299-.045-.625-.351-.888-.043-.312.367-.065.765.115 1.106.588 1.108.741 2.343 1.031 3.537-.028.452-.059.903-.084 1.356-.387.119-.771.238-1.154.358-.242.021-.483.045-.726.067-.63-.191-1.274-.139-1.916-.143-.971-.605-2.099-.438-3.147-.604-3.099-.484-6.182-1.11-9.335-1.157-.405-.188-.82-.161-1.239-.062-3.295-.176-6.589-.41-9.886-.504-2.709-.078-5.429.106-8.132.069-3.915-.054-7.827-.137-11.742-.06-.396.009-.8.043-1.182.142-.43.106-.527.386-.116.649.998.646 1.834 1.494 2.854 2.123 1.308.806 2.521 1.761 3.763 2.67.521.382.754.966.66 1.57-.084.558-.668.541-1.104.729-1.501.653-3.099.713-4.675.92-2.211.293-4.493.321-6.621.912-3.588.993-7.143 2.146-10.673 3.353-2.258.771-4.532 1.514-6.77 2.348-.935.349-1.969.705-2.558 1.654-.36.582-.442 1.066.445 1.182l.023-.006c.056.465.413.666.771.84.997.486 1.981 1.009 3.013 1.416 2.396.949 4.784 1.938 7.327 2.455l.107.037.116-.006.223.112c.236.147.492.164.761.106.597.424 1.294.569 1.989.742 4.323 1.075 8.655 2.129 12.967 3.262 4.462 1.177 8.899 2.437 13.351 3.658.674.271 1.353.535 2.021.815.932.392 1.177 1.394.455 2.097-.706.688-1.401 1.392-2.352 1.795-1.604.685-3.181 1.432-4.76 2.172-.723.34-.771.729-.021 1.125 1.676.889 3.309 1.901 5.331 1.678 1.223.449 2.438.02 3.657-.016 4.064-.115 8.13-.172 12.192-.342 5.138-.216 10.276-.404 15.396-.924.52 0 1.043.059 1.555-.009 3.877-.504 7.77-.791 11.677-.896.872-.022 1.763.077 2.608-.242l1.196-.012c.235-.031.473-.062.707-.091 1.207.167 2.416.058 3.624.031.132.106.263.219.396.328.146.643.027 1.262-.17 1.874-.335.224-.659.455-.759.883-.247.101-.422.262-.439.557zm-47.747-36.579c.757.938 1.337 1.534 1.77 2.223.588.938 1.188 1.902.604 3.111-.604 1.247-1.761 1.444-2.907 1.516a108.02 108.02 0 00-12.074 1.433c-2.3.399-4.599.81-6.898 1.218-.496.09-.998.18-1.523.551 2.121.756 4.155 1.388 6.239 1.812 5.562 1.136 11.146 2.153 16.693 3.356 3.447.746 6.909 1.483 10.105 3.123 3.157 1.617 3.392 3.793.581 5.908-.543.409-1.278.596-1.681 1.305 2.414.808 4.858 1.021 7.326.858 2.265-.147 4.515-.468 6.774-.633 2.978-.217 5.963-.342 8.943-.532 6.903-.441 13.777-1.333 20.707-1.363 1.375-.008 2.778-.141 4.074.584 1.021.569 1.27 1.151.865 2.205-.439 1.151-1.082 2.183-1.82 3.151-.398.524-.414.854.314.94.709.082 1.436.22 2.134.027 2.848-.772 5.778-1.089 8.679-1.539 2.543-.394 5.14-.447 7.697-.754 1.363-.162 1.615-.599 1.387-1.888-.292-1.651-.396-3.326-.385-4.991.021-3.171-.151-6.339.032-9.517.178-3.066.072-6.153-.017-9.229-.01-.353.35-1.109-.607-1.3-1.924-.382-3.814-.935-5.721-1.409-1.083-.271-1.436.055-1.112 1.164a18.39 18.39 0 01.688 3.735c.166 2.211-.649 3.087-2.812 2.942a12.623 12.623 0 01-1.771-.24c-5.067-1.069-9.976-2.805-15.092-3.684-2.915-.503-5.665-1.729-8.671-1.869-2.52-.115-2.516-.192-1.983 2.347.445 2.147-.354 3.122-2.523 3.269-2.702.182-5.218-.562-7.789-1.232-3.929-1.023-7.931-1.766-11.879-2.719-3.608-.873-7.203-1.791-10.834-2.566-2.383-.506-4.778-.93-7.513-1.313zm-156.798 14.207c-2.442-1.823-5.169-2.887-7.615-4.404-2.418-1.5-4.937-2.803-7.403-4.201-4.766-2.703-9.363-5.658-13.933-8.676-.984-.648-1.815-1.41-2.628-2.225-.279-.279-.582-.588-.721-.943-.763-1.949-.925-2.455 1.226-2.795 4.577-.72 9.164-1.281 13.812-1.414 3.115-.09 6.223-.547 9.326-.883 2.986-.324 5.984-.594 8.944-1.088 2.874-.48 5.81-.534 8.64-1.318.665-.185.713-.369.619-1.029-.204-1.426-.977-2.572-1.551-3.822-.494-1.075-1.156-2.146-.416-3.371.208-.344.379-.582.932-.339 3.152 1.382 6.565 1.972 9.826 3.044 2.312.759 4.812 1.236 7.221 1.822 1.69.412 3.405.901 5.066 1.531 1.412.537 3 .537 4.451 1.092 2.625 1.002 5.43 1.326 8.136 2.025 3.494.902 6.9 2.225 10.598 2.212 1.362-.004 1.798-.243 1.677-1.503a94.104 94.104 0 00-.588-4.723c-.195-1.33.547-1.887 1.835-1.604 1.918.418 3.831.838 5.7 1.436 3.134.996 6.256 2.019 9.415 2.924 2.685.77 5.313 1.718 7.976 2.564 4.513 1.438 9.033 2.857 13.547 4.293.374.119.738.283 1.089.461 1.472.744 1.717 1.194 1.13 2.688-.513 1.301-.457 2.658-.631 3.99a160.084 160.084 0 00-.589 5.158c-.155 1.604-.032 3.357.041 5.045.104 2.398.168 4.804.229 7.205.015.502.093 1.039-.32 1.453-.163.164-.194.481-.081.529 1.012.426.451 1.256.426 1.856-.072 1.729.645 3.358.577 5.062-.084 2.146.906 4.061 1.18 6.122.085.644.13 1.362-.58 1.437-.565.058-1.18-.438-1.18-1.188.001-.836-.549-.746-1.064-.688-1.609.176-3.218.38-4.828.564-5.809.668-11.541 1.854-17.341 2.539-2.57.305-5.164.58-7.783.613-2.65.035-5.33-.126-7.969.34-1.378.243-2.646-.458-4.005-.396-2.401.109-4.672-.715-7.014-1.041-1.729-.238-2.107-1.809-.97-3.188.531-.646 1.298-1.023 1.822-1.789-1.79-.348-3.539.102-5.264-.074-3.75-.385-7.525-.336-11.276-.753-2.917-.323-5.857-.413-8.789-.634-1.146-.088-2.301-.178-3.428-.395-3.873-.736-7.78-.902-11.71-1.109-3.278-.173-6.706-.256-9.717-2.02-1.192-.695-2.388-1.398-3.396-2.342-1.741-1.628-.709-4.921 1.795-5.842.931-.342 1.858-.686 2.797-1.004.897-.297 1.784-.628 2.757-1.204zm12.328-28.291l.001.004c.014.316.025.635.041.952-.034.112-.068.228-.104.341a.967.967 0 00-.52.557c-.118.055-.237.106-.355.16-1.212.113-2.382.532-3.618.492-.102-.004-.21.209-.313.32l-.577.014c-.119-.158-.235-.156-.349.006-2.803.328-5.602.666-8.402.983-4.062.46-8.118.938-12.196 1.233-2.004.145-3.998.445-5.997.678-.159.009-.315.018-.476.025-3.105-.041-6.159.396-9.201.965-.708.135-.837.523-.386.965.688.672 1.352 1.424 2.334 1.713l-.002.023c2.256 1.893 4.867 3.258 7.295 4.893 4.968 3.342 10.382 5.936 15.559 8.932 1.627.941 3.347 1.746 4.981 2.688.441.396.848.859 1.503.906.221.098.44.19.663.285l.432 1.365c-.133.246-.265.49-.396.736-.355.003-.532.244-.688.515-.268.008-.549-.034-.75.212-.883.633-1.938.859-2.925 1.248-1.107.436-2.233.844-3.284 1.393-1.124.586-1.434 1.815-.629 2.498 2.117 1.797 4.444 3.189 7.346 3.233l.709.056.236.01c.158.02.317.037.475.057.125.195.303.199.495.135.156.018.312.03.471.045.163.225.405.211.645.221 1.569.068 3.138.193 4.707.195 1.35 0 2.663.439 4.019.266.477.022.95.049 1.426.07.223.197.479.186.742.119.314.03.63.062.942.09.578.437 1.235.519 1.93.436.158.012.316.021.476.033.436.373.95.23 1.442.216l.954.034c.606.387 1.273.227 1.922.214.32.009.641.017.958.022.952.537 2.017.18 3.021.37 2.169.407 4.379.425 6.583.39l.405.008.284.062.516.087c.23-.01.464-.019.695-.027h.512c.634.087 1.23.531 1.91.192.117-.01.236-.021.356-.03.723.687 1.59.271 2.377.264 2.915-.036 5.854.472 8.739-.321.338-.094.519.073.688.316.552.784.396 1.518-.502 1.973-.674.343-1.355.64-1.793 1.297l-.03.013c-.363-.045-.604.106-.72.453-.084.076-.169.151-.253.229-.408.142-.587.471-.407.823.232.466.725.353 1.148.311.981.155 1.972.27 2.943.473 3.068.643 6.168.703 9.282.519.158-.003.319-.009.479-.013l.476-.015c.233.035.47.093.704.104 4.633.24 9.186-.508 13.741-1.145 1.438-.201 2.935-.123 4.292-.771.404.291.801.271 1.188-.035 4.1-.424 8.188-.941 12.231-1.754 1.548.117 1.931-.279 1.756-1.682-.254-2.061-.273-4.147-.82-6.17-.207-.479-.604-.428-1.007-.357-2.777.467-5.515 1.143-8.311 1.545-2.977.428-5.926 1.113-8.896 1.559-2.695.404-5.399.98-8.158.928l-.479.006c-1.455.02-2.901.113-4.34.361-.385-.006-.77-.01-1.156-.015-.217-.226-.479-.194-.748-.132-.233-.025-.471-.051-.705-.074-.58-.388-1.262-.379-1.913-.482l.005.016-.251-.253.014.006c-.95-.866-.734-1.735-.006-2.604l-.006.008c1.016-.176 1.427-1.146 2.388-1.699-1.212-.283-2.218-.678-3.295-.688-4.578-.045-9.148-.115-13.721-.479-4.634-.371-9.257-.784-13.877-1.296-3.039-.336-6.115-.489-9.188-.353h-.957c-2.877-.288-5.741-.726-8.64-.78a.19.19 0 00-.189-.039c-.102-.062-.196-.14-.306-.183-2.413-.928-2.559-1.879-.715-3.754 1.593-1.619 3.662-2.499 5.488-3.75.699-.479.774-.792.062-1.319-1.482-1.095-3.17-1.785-4.839-2.483-3.501-1.472-7.059-2.81-10.565-4.261-1.761-.729-3.479-1.562-5.193-2.396-.81-.392-1.364-1.071-1.194-2.006.167-.914.982-.906 1.723-.906 4.074.005 8.148.021 12.224.009 4.938-.018 9.896.217 14.781-.793.524.191.936-.293 1.436-.244 1.312-.195 1.003-1.052.758-1.877l-.04-.729c-.239-.721-.16-1.538-.681-2.168-.238-.982-.659-1.979.21-2.88 1.021-.118 1.79.511 2.671.848 3.356 1.287 6.784 2.33 10.104 3.795 4.236 1.867 8.496 3.761 12.903 5.273 4.563 1.563 9.098 3.051 14.015 2.825 1.026-.047 1.598-.311 1.831-1.397.439-2.037.092-4.041-.05-6.06.021-.156.037-.313.057-.474.531-1.178 1.456-1.188 2.471-.78.743.297 1.493.533 2.286.636l.521.11c.156.008.314.019.471.024.899.435 1.848.713 2.818.933 1.928.438 3.861.854 5.774 1.349 1.868.483 3.723 1.032 5.569 1.598 1.618.493 3.221 1.043 4.825 1.574 1.156.382 2.157 1.174 3.419 1.276.425.033.891.053.851-.521-.054-.723.379-1.385.188-2.107.569-1.537.552-1.605-.826-2.278-1.925-.94-3.951-1.601-6.028-2.104-.132-.178-.314-.197-.515-.174a3.045 3.045 0 00-1.685-.46c-.526-.179-1.05-.364-1.579-.534-2.347-.758-4.688-1.539-7.046-2.256-2.314-.701-4.574-1.589-6.957-2.061-1.315-.424-2.701-.705-3.934-1.307-2.099-1.021-4.4-1.271-6.575-1.986-.817-.27-1.417.035-1.293 1.066.229 1.934-.082 3.893.289 5.818l-.505.51c-2.839.639-5.603.027-8.333-.615-3.031-.713-6.006-1.68-9.034-2.404-1.61-.387-3.186-.896-4.823-1.209-2.325-.441-4.56-1.346-6.857-1.951-2.509-.664-4.939-1.674-7.581-1.793-.647-.557-1.428-.731-2.254-.768l-.716-.128c-1.155-.462-2.314-.907-3.573-1.002-1.109-.743-2.438-.78-3.677-1.099-.448-.115-.343.32-.245.564.632 1.584 1.28 3.162 1.923 4.742.012.105.021.213.029.318-.112.101-.141.204.021.296zm47.563 38.238c.905.189 1.643.533 2.325.451 1.643-.192 3.244-.43 4.932-.395 2.274.049 4.561-.414 6.837-.661 1.027-.11 2.084-.106 3.074-.366 2.996-.777 6.072-1.104 9.096-1.721 2.402-.486 4.801-1.004 7.204-1.475.498-.1.521-.358.504-.762-.112-2.86-.229-5.724-.311-8.586-.079-2.801-.073-5.603.241-8.394.04-.353.007-.685-.378-.755-1.255-.236-2.294-.991-3.473-1.396-3.889-1.34-7.777-2.662-11.824-3.49-3.402-.695-6.667-1.943-10.076-2.658-1.138-.238-1.212.057-1.124 1.011.188 2.028.06 4.044-.584 5.995-.337 1.021-1.077 1.479-2.152 1.582-3.624.348-7.146-.305-10.573-1.291-4.648-1.342-9.083-3.314-13.571-5.115-3.206-1.285-6.261-2.938-9.578-3.953-1.692-.519-3.365-1.104-5.094-1.674-.146 1.312.4 2.372.577 3.494.326 2.061.18 2.771-2.052 3.416-1.011.292-2.081.396-3.13.533-5.981.789-11.986.691-17.995.48-1.908-.064-3.82-.01-5.729-.01 4.754 2.504 9.741 4.293 14.586 6.42 1.936.85 3.869 1.68 5.498 3.084.766.66.814 1.402.255 2.079-.418.505-.848 1.028-1.386 1.458-1.529 1.219-3.454 1.785-4.932 3.076-.266.23-.712.396-.607.8.11.438.631.483.99.522 1.585.177 3.176.322 4.768.414 3.942.229 7.911.229 11.829.676 5.328.605 10.678.863 16.01 1.378 5.493.526 11.051-.229 16.515.875.661.134 1.393.038 1.729.791.378.843.008 1.554-.521 2.173-.551.654-1.17 1.249-1.88 1.994zm282.67 8.021c-5.783-.116-11.542.308-17.308.601-2.531.129-5.066.179-7.599.275-1.866.072-3.715.115-5.582.025-2.534-.123-4.702-1.352-7.026-2.107-.368-.119-.517-.428-.666-.783-.911-2.156-.26-3.906 1.711-5.189 1.248-.812 2.77-1.025 3.914-2.012.908-.779.927-.963-.188-1.328-2.929-.959-5.875-1.854-8.812-2.791-3.389-1.08-6.761-2.215-10.163-3.25-2.207-.67-4.471-1.147-6.681-1.809-3.947-1.177-7.657-2.812-10.545-5.896-.191-.201-.39-.406-.536-.644-.941-1.513-.461-2.706 1.361-3.808 3.618-2.188 7.633-3.344 11.627-4.54 4.598-1.382 9.228-2.655 13.922-3.667 2.825-.609 5.677-1.104 8.522-1.605 1.053-.186 1.186-.639.602-1.453-1.021-1.42-2.288-2.643-3.204-4.146-.483-.795-.883-1.648-.403-2.461.453-.768 1.389-.641 2.188-.537 4.931.623 9.865 1.225 14.79 1.893 2.432.328 4.842.811 7.269 1.172 4.207.631 8.383 1.451 12.612 1.938 1.264.146 2.515.401 3.768.633.645.119.866-.08.813-.752-.068-.866-.318-1.703-.21-2.608.169-1.399 1.097-2.168 2.464-1.896 3.301.653 6.444 1.888 9.709 2.663 2.188.521 4.417.863 6.567 1.57 2.354.775 4.729 1.512 7.133 2.123 2.229.566 4.422 1.24 6.623 1.896.812.242.956.725.773 1.434-.964 3.769-.833 7.611-.835 11.448-.002 3.255.104 6.513.423 9.743.431 4.338.634 8.704 1.385 13.002.317 1.828.67 3.674 1.361 5.421.203.511.282 1.15-.12 1.444-.341.25-.867.119-1.385-.247-1.084-.771-2.446-.548-3.681-.437-4.073.378-8.135.856-12.207 1.258-2.725.268-5.44.67-8.177.768-3.438.125-6.875-.094-10.312-.225a8.485 8.485 0 01-1.881-.276c-2.104-.562-2.538-1.778-1.344-3.623.215-.332.908-.558.549-1.022-.178-.242-.799-.143-1.221-.195zm-27.568-44.309l-1.11-.065c-.107-.108-.208-.302-.328-.313a396.99 396.99 0 00-5.529-.589c-.227-.021-.508-.065-.625.206-.108.247.062.469.197.645.217.277.445.562.814.66l.307.451a8 8 0 001.662 1.75.167.167 0 00.05.145c.319.801.64 1.601.956 2.4-.021.151-.048.305-.069.457-.222.176-.213.353-.001.526.025.071.051.146.068.218-.818.749-1.77 1.102-2.892 1.213a51.064 51.064 0 00-9.381 1.812c-.564.04-1.144.017-1.641.358-.207-.045-.381-.008-.492.189-.345-.023-.695-.086-.956.229-.331.047-.702-.059-.959.26-1.874.191-3.628.871-5.423 1.38-2.578.729-5.105 1.653-7.697 2.339-2.388.629-4.463 1.865-6.604 2.996-.854.449-.811 1.111-.223 1.763.371.409.786.788 1.225 1.122 3.055 2.324 6.58 3.631 10.241 4.555 3.08.776 6.1 1.739 9.145 2.633 3.727 1.099 7.382 2.418 11.107 3.525 1.755.521 3.637.781 5.229 1.915.73.521.781 1.022.564 1.669-.519 1.541-1.795 2.365-3.173 2.973-1.408.619-2.745 1.264-3.536 2.678-.293.521-.341 1.162.192 1.351 1.818.644 3.468 1.853 5.52 1.757.369.311.782.23 1.197.141.16.008.32.016.479.021 1.853.271 3.679-.242 5.521-.179.159-.004.317-.008.477-.01 1.76-.014 3.52-.023 5.277-.035 2.979-.228 5.951-.582 8.93-.646 4.266-.09 8.53-.072 12.792-.229.496-.02 1.143-.149 1.262.57.101.604.19 1.206-.532 1.669-.688.437-1.227 1.104-1.822 1.677-.622.596-.427.982.344 1.119.664.116 1.345.206 2.018.203 4.245-.018 8.482.505 12.74.058 1.301-.137 2.609-.12 3.866-.55 1.229-.088 2.476-.08 3.681-.296.935-.167 1.926.089 2.806-.398.41-.054.82-.104 1.23-.161.105.098.168.024.225-.062.312-.016.627-.026.941-.039 1.604-.117 3.219-.127 4.803-.459l.471-.062c.315.028.631.082.945.08.761-.006.934-.331.48-.959-.022-.314-.048-.635-.069-.951-.104-1.145-.319-2.266-.576-3.385-.295-1.284-.39-1.373-1.731-.965l-1.436.012c-.399-.252-.8-.352-1.201-.001-1.354.021-2.711-.117-4.062.077-2.198-.151-4.311.525-6.476.701-.168.01-.336.019-.504.025a18.924 18.924 0 01-.237-.02l-1.937-.012c-.411-.388-.937-.38-1.447-.421-.146-.004-.293-.008-.438-.014a44.846 44.846 0 01-.736-.097l-.702-.252c-.09-.062-.181-.123-.271-.187l-.03-.025c.08-.901.298-1.701 1.229-2.141.298-.14.662-.422.603-.817-.069-.453-.518-.405-.867-.453-2.622-.358-5.258-.142-7.888-.179a62.266 62.266 0 00-14.149.562c-1.269-.034-2.537-.065-3.806-.106-1.125-.034-2.244-.168-3.234-.729-.479-.272-1.188-.478-1.071-1.264.112-.753.47-1.33 1.264-1.583.947-.303 1.874-.676 2.871-.815.266-.036.566-.143.611-.483.057-.428-.312-.349-.555-.444-3.829-1.558-7.927-2.233-11.8-3.656-2.982-1.096-6.028-2.039-8.586-4.014-.781-.604-1.586-1.248-1.644-2.38.091-.316.184-.635.272-.95.213-.08.252-.263.271-.457l-.011.012c1.104-.161 2.104-.72 3.234-.791 2.019-.127 4.032-.28 6.05-.435.737-.057 1.534.064 2.092-.612.68-.438.354-1.073.276-1.625-.278-1.966.509-2.987 2.422-2.794 2.128.216 4.243.605 6.364.878 3.587.459 7.112 1.285 10.708 1.656 3.119.323 6.221.94 9.383.771l1.077.084c.109.043.224.086.336.129.175.014.35.021.522.033 1.193-.121 2.382.48 3.577.019.242-.005.485-.011.729-.015.905-.066 1.149-.509 1.029-1.424-.193-1.502-.621-3.023-.056-4.542l-.004.007c.354-.186.688-.274 1.13-.191 2.692.512 5.324 1.234 7.95 2.008.792.23 1.344.857 2.127 1.037 1.637.373 3.139 1.079 4.656 1.775.646.299 1.481.678 2.157.271.631-.377.263-1.166.248-1.783-.031-1.598.1-3.188.38-4.756.251-1.396.072-1.756-1.316-2.174-1.75-.527-3.479-1.163-5.258-1.549-2.813-.604-5.372-2.01-8.223-2.48a62.765 62.765 0 01-4.779-.992c-2.853-.709-5.664-1.559-8.562-2.102-.954-.182-1.057.285-1.031.943.026.717.189 1.426.22 2.141.059 1.482-.27 1.805-1.789 1.876-1.774.083-3.471-.47-5.21-.657-2.486-.271-4.885-1.16-7.421-1.076h.001c-.592-.449-1.286-.185-1.93-.285-1.085-.357-2.17-.717-3.334-.694-2.111-.718-4.341-.724-6.517-1.056a1.572 1.572 0 00-.952-.096c-2.207-.504-4.44-.804-6.712-.748zm62.293 17.713c-.77.227-1.421-.09-2.071-.517-.629-.409-1.269-.918-1.974-1.079-2.407-.558-4.603-1.684-6.929-2.447-1.582-.519-3.243-.678-4.808-1.269-.513-.192-1.265-.229-.949.933.285 1.049.233 2.203.236 3.312.003.901-.421 1.719-1.366 1.801-.615.054-1.236.166-1.869.177-3.939.065-7.833-.562-11.756-.769-3.687-.19-7.287-1.035-10.93-1.556-2.717-.387-5.43-.791-8.148-1.172-1.937-.271-1.938-.261-1.896 1.67.042 1.91-.111 2.129-1.872 2.774-.684.25-1.389.334-2.11.384-2.371.16-4.75.262-7.09.723-.268.054-.602.019-.668.365-.061.31.294.33.454.481 1.271 1.213 2.891 1.776 4.475 2.435 3.083 1.276 6.251 2.283 9.463 3.183 2.287.639 4.587 1.257 6.851 1.979 1.904.608 2.104 2.047.604 3.389-.818.734-1.858 1.002-3.078 1.572 2.661.238 5.028.42 7.395-.072 1.175-.243 2.358-.34 3.559-.391 4.837-.201 9.658.352 14.491.217 1.2-.031 2.383.028 3.534.424 1.171.399 1.459 1.006.942 2.13-.146.319-.375.602-.571.896-.271.405-.354.747.291.814 1.34.14 2.666.402 4.03.115 1.165-.248 2.355-.356 3.531-.553 2.841-.474 5.718-.203 8.569-.438.797-.064 1.012-.355.979-1.104-.081-1.732-.132-3.535-.435-5.172-.538-2.916-.148-5.841-.629-8.709-.25-1.495.164-2.995-.255-4.526z"/>
  <path fill="#E02E2D" d="M-75.567-172.119c3.416.508 6.839.977 10.2 1.797 2.546.621 5.098 1.209 7.593 2.039 1.26.42 2.447.922 3.547 1.643 1.062.693 1.082 1.477-.003 2.184-.992.646-2.044 1.204-3.092 1.76-.403.213-.729.449-.942.858-.34.652-.273 1.118.468 1.433 2.174.916 4.441 1.451 6.772 1.733.776.095 1.566.072 2.353.104-.105.255-.188.521-.319.759-.538.963-1.745 1.489-1.504 2.979.167 1.03.434 1.467 1.479 1.072.678-.255 1.331-.597 1.925.16.245.312.414.023.669-.075 1.173-.463 2.575-.735 3.598-.182 1.164.633 2.16.728 3.319.391.554-.159.837.046.91.595-5.118.521-10.26.709-15.396.924-4.062.171-8.128.228-12.192.343-1.219.032-2.436.465-3.657.014 1.659-.803 3.453-.608 5.274-.866-.374-.336-.793-.94-1.358-.787-1.829.502-.803-1.058-.882-1.414-.204-.935.438-.228.764-.194.507.047.446-.401.601-.714.453-.922.891-1.889 2.274-1.532.63.162 1.1-.455.93-1.138-.069-.274-.051-.42.192-.588.667-.461.467-1.254.396-1.805-.079-.63-.865-.308-1.347-.365-.487-.06-.913.088-1.355.334-.394.222-.948.385-1.114-.354-.106-.481-.426-1.021.414-1.207.328-.073.706-.162.86-.581-.378-.395-.859-.355-1.332-.355-.396 0-.811.049-1.074-.357-.564-.876-1.49-.755-2.341-.831-.235-.021-.602.044-.498.334.448 1.259-.365 1.974-1.081 2.746-4.45-1.224-8.889-2.481-13.351-3.657-4.312-1.134-8.644-2.188-12.967-3.263-.695-.173-1.394-.317-1.989-.742 1.314.224 2.176-.321 2.659-1.548.064-.169.256-.364.424-.406 1.619-.4.854-1.84 1.005-2.716.184-1.06.13-1.347 1.239-1.022.393.114.833.345 1.018-.177.152-.43-.148-.688-.595-.854-.561-.209-1.198-.918-1.02-1.223.871-1.479-.347-1.205-1.09-1.328.114-.496.528-.562.786-.781.418-.356.812-.557 1.339-.073.366.335 1.156.295.642 1.159-.222.369.345.441.539.656.135.149.37.222.537.065.266-.241-.019-.422-.133-.604-.178-.284.113-.41.173-.612.484-1.642-.517-2.507-2.16-2.438-.899.037-1.562-.099-2.016.805-.028.06-.436-.065-.664-.113-.354-.075-.51.146-.634.413-.124.271-.207.54.155.7.247.109.638.164.531.515-.125.407-.534.22-.829.198-1.319-.09-2.592-.062-3.681.885-.246.214-.542.592-.854.51-.451-.508.625-1-.139-1.289-.7-.267-.786.455-.979.918-.046.108-.122.209-.161.319-.122.349-.896.456-.519.907.344.41.962.227 1.46.076.146-.043.262-.18.4-.256.191-.104.404-.115.534.072.123.18.062.375-.075.549-.646.812-1.359 1.148-2.244.211-.051 1.023-.691 1.569-1.627 1.442-1.064-.144-.749-.929-.654-1.569.034-.232.134-.443.066-.695-.22-.842-1.148-1.358-1.397-.807-.328.729-.919.637-1.438.817-1.101.388-1.745 1.448-2.81 1.894-.09.037-.09.293-.132.446-.89-.114-.807-.601-.445-1.182.589-.949 1.624-1.308 2.558-1.654 2.236-.833 4.512-1.575 6.77-2.349 3.532-1.207 7.084-2.356 10.673-3.352 2.127-.591 4.41-.619 6.621-.912 1.576-.207 3.174-.267 4.675-.92.438-.189 1.02-.175 1.104-.73a1.612 1.612 0 00-.662-1.569c-1.24-.909-2.455-1.864-3.763-2.67-1.021-.629-1.854-1.479-2.854-2.123-.412-.267-.312-.543.116-.649a5.207 5.207 0 011.182-.142c3.915-.077 7.827.005 11.742.06 2.704.037 5.423-.147 8.132-.07 3.297.095 6.591.329 9.886.505-.179.224-.643.399-.314.745.383.404.333.921.513 1.322.326.729.631 1.729 1.842 1.629.771-.063.9.402.637 1.043-.361.027-.799-.133-.979.375l-1.408-.383c-.074-.431-.229-.588-.558-.166l-.653-.117c-.489-.645-1.258-.508-1.914-.684.073-.268.27-.572.196-.791-.256-.776.216-2.125-.844-2.24-1.836-.199-3.726-.57-5.589.09-.666.236-.688.218-.271.859.563.868 1.777.627 2.187 1.562-1.392-.264-2.782-.52-4.172-.794-.729-.146-1.406-.188-1.815.604-.312-.23-.414-.564-.489-.925-.221-1.047-.952-1.479-1.943-1.472-.733.006-1.477.232-2.201.181-1.506-.108-3.052.345-4.522-.411-.501-.259-1.033.243-1.431.536-.43.313.101.771.275.862 1.458.75.944 3.271 3.075 3.41.104.008.188.486.255.752.067.252-.099.564.216.775.278.129.214-.896.896-.175.472.5 1.268.923 1.62 1.529.394.68 1.414.887 1.349 1.858-3.082.027-6.008 1.084-9.061 1.35-2.85.246-5.62.988-8.415 1.574-.734.154-1.279.44-1.479 1.187-.196.739.402 1.074.84 1.449.49.419 1.108.614 1.721.81 3.897 1.233 7.861 2.213 11.867 3.041.113.021.223.077.334.118-.596.146-.596 1.229-1.354.978-.732-.242-1.593.055-2.239-.645-.293-.314-1.038-.525-1.042.271-.007 1.129-.607 1.22-1.468 1.183-.507-.021-1.018.086-1.527.085-.352-.001-.398.189-.384.449.021.304.216.427.493.357a6.81 6.81 0 00.909-.3c.488-.194.922-.06 1.133.365.212.426.06.772-.438 1.056-.487.274-1.022.566-1.241 1.213-.152.448.01.688.291.928.257.221.417.628.873.504 1.624-.441 3.161-.549 4.25 1.095.1.149.27.226.404.112 1.073-.877 2.27.15 3.365-.229.333-.114.559-.001.67.302.102.266-.043.45-.284.578-.361.191-.727.334-.327.879.339.463.703.619 1.222.455.438-.14.708-.312.31-.834-.19-.255.183-.481.364-.677.319-.338.631-.671.579-1.274-.275.078-.462.125-.646.185-1.133.364-1.156-.658-1.493-1.231-.393-.666.115-.974.601-1.324.578-.418 1.595-.367 1.581-1.498-.002-.205 1.023-.068.87-.633-.167-.613-.771.049-1.151-.113-.214-.092-.434-.202-.604-.354-.293-.265-.568-.303-.976-.235-1.233.188-2.134-.405-2.641-1.635zm-28.925-5.483c.831-.02 1.274-.15 1.883-.449-.764-.345-1.228-.228-1.883.449zm.494 1.686c.117-.021.253-.054.189-.207-.054-.136-.141-.318-.254-.354-.181-.06-.258.112-.25.282.012.186.144.259.315.279z"/>
  <path fill="#E02E2D" d="M12.398-152.828l.092.717c-.312.377-.62.754-.933 1.129-4.158.625-8.3 1.41-12.479 1.812-2.506.24-4.915.922-7.405 1.143-.083.033-.166.064-.249.1-.249.037-.498.071-.746.107-.813-.557-1.586.029-2.336.176-.484.094-1.255-.291-1.501.541-.729.066-1.454.135-2.181.201-.385-.318-.861-.236-1.256-.152-1.302.275-2.582-.186-3.874-.033-.28.034-.6-.021-.713-.312-.146-.379.235-.442.454-.566.423-.242.838-.475.84-1.045l-.002.004c.562.046 1.079.041.94-.771.066-.07.134-.145.201-.215.352.043.544-.094.533-.465l-.005.002c.382.01.51-.189.457-.544.1-.427.425-.659.76-.883.964-.677 1.021-1.335.169-1.874l-.396-.328c.023-.52-.248-.693-.734-.674-.556.021-1.11.004-1.665.004-.008-.281.021-.539.188-.796.157-.242.776-.526.219-.804-.466-.232-1.17-.27-1.615.031-.49.328.636.287.291.748a.686.686 0 01-.905-.328c-.587-1.26-1.187-.627-1.774-.049-.196.193-.403.578-.644.322-.792-.855-1.486.135-2.232.055-.314-.033-.64.465-.985.242-.491-.312.464-.632.05-1.021-.591.082-.96.895-1.533.729-1.141-.332-2.343-.542-3.418-.975-1.581-.637-2.877-1.889-4.793-1.781-1.363.074-2.757.197-4.125-.262-1.446-.486-2.924.24-4.392.029-.179-.023-.341-.166-.511-.254 1.873-.604 3.833-.457 5.752-.627 2.643-.23 5.296-.322 7.945-.476-.19.562-.861 1.235.358 1.472.121.023.272.207.304.34.211.981 1.793.479 1.792 1.67.154-.012.333.023.456-.043.207-.113.21-.32.073-.508-.116-.16-.274-.291-.375-.459-.316-.533-.309-1.086.062-1.572.414-.547.656.145.99.182.308.031.726.104.922-.057.757-.608.928.062 1.451.371-.653.354-1.367.045-1.607.832 1.508.342 2.984-.052 4.444.09.396.039 1.083.15 1.024-.428-.036-.391-.755-.535-1.216-.693-.064-.021-.193.107-.285.182-.604.48-1.193.361-2.182-.114 1.744-.556 3.256-.851 4.418-1.866l.31.006c.396.02.795.055 1.19.053 1.461-.01 2.9-.006 4.348-.436 1.197-.354 2.525-.055 3.749.058 1.089.099 2.467-.319 3.313.87l-.257.477-.479-.012c-.209-.428-.585-.493-1.007-.479-1.372.047-2.758.17-4.104-.121-.975-.211-1.885.08-2.812.164-.468.043-1.33.146-1.181.875.104.524.224 1.342 1.244 1.289.653-.035.938.633.812 1.215-.188.896.188.696.659.426.549-.312 1.082-.85 1.728-.672.697.189 1.154-.062 1.618-.453.625-.526 1.336-.661 2.119-.524-.009.039-.016.078-.026.117-.218.778-1.326 1.446-.488 2.351.869.938 2.077 1.495 3.335 1.267 3.994-.73 7.98-1.472 12.036-1.787 1.407.354 2.763.188 4.064-.438.159-.027.319-.058.479-.086.359.372.83.231 1.242.206.889-.055 1.304.179 1.493 1.187.145.709-.258 1.607.497 2.191zm-25.256 3.928c.977.072 1.785-.264 2.661-.229 1.857.074 3.808.453 5.408-.964.55-.486 1.31-.271 1.898-.611.148-.086.276-.184.236-.358-.021-.091-.133-.159-.204-.238-.583.544-1.299.034-1.893.22-2.032.637-4.145.678-6.229.842-.965.072-1.556.334-1.877 1.338zm-13.989-37.819c-.24.413-.481.825-.725 1.236-.266.021-.622-.055-.652.332-.029.402.321.369.594.396.015.162.026.324.042.486-.427.387-.735.731-.374 1.401.427.789.146 1.112-.827 1.271-1.604.257-2.866-.722-4.333-.919-.5-.068-1.369-.443-1.448-1.1-.107-.885.798-1.35 1.276-1.987.27-.36.557-.312.924-.067.431.285.912.322 1.347-.043-1.12-.621-2.216-1.146-3.219-1.812-.751-.5-1.445-.199-1.963.143-.575.38.204.773.302 1.18.194.809.291 1.633.568 2.433.1.284-.178.688-.537.854-.198.091-.419.052-.504-.167-.344-.885-.969-1.089-1.821-.81-.272.089-.497-.067-.612-.271-.438-.77-.847-1.529-1.88-.688-.115.093-2.68-1.677-2.683-1.858-.01-.648-.308-.945-.957-.943-.479.002-.774-.264-.706-.756.084-.602.596-.439.954-.406.511.049 1.089.068 1.501.322.926.572.884.016.868-.617-.007-.238 0-.479.001-.719.642.002 1.287-.052 1.916.142.296.554.532.489.726-.067l1.154-.359c.172.926 1.174.711 1.624 1.199.271.295.261.887.879.729.274-.07.552-.301.56-.571.016-.483-.158-.915-.627-1.2-.797-.482-1.568-1.006-2.352-1.514-.29-1.194-.442-2.43-1.031-3.537-.183-.344-.428-.74-.115-1.105.264-.309.589-.004.889.041 4.023.604 7.879 1.945 11.853 2.726 1.996.392 3.906 1.136 5.938 1.331.914.087 1.741.467 2.603.736.229.859.993 1.029 2.381.531.159.021.319.037.479.057.314.662.802 1.312.074 2.025-.068.07-.05.369.032.438.761.617.585 1.154.219 2.012-.35.814-.646.859-1.268.582-.318-.145-.622-.52-.736.16l-.957-.062c-.039-.275-.218-.39-.476-.453-1.145-.285-2.198-.672-2.521-2.013-.069-.299-.403-.336-.695-.354-.522-.034-1.003-.209-1.458-.469-.412-.233-.821-.565-.713.377.085.748-.335 1.092-1.169 1.07-1.847-.048-3.63-1.625-3.917-3.41-.094-.566-.093-1.453-.659-1.647-.531-.183-1.239-.511-1.837-.146-.553.337.062.886-.108 1.321a1.531 1.531 0 00-.1.343c-.202 1.53 1.214 3.162 2.78 3.302.599.043 1.454-.155 1.496.894z"/>
  <path fill="#E02E2D" d="M-45.809-158.869c.17.088.332.229.512.254 1.467.211 2.942-.519 4.391-.03 1.367.459 2.761.336 4.125.262 1.916-.104 3.212 1.146 4.793 1.781 1.075.433 2.277.643 3.418.975.573.166.942-.646 1.533-.729.414.394-.541.71-.05 1.023.348.223.671-.275.985-.242.746.08 1.44-.91 2.232-.055.238.256.446-.129.644-.322.59-.578 1.188-1.211 1.774.049.139.3.516.492.905.328.345-.461-.781-.42-.291-.748.445-.301 1.149-.266 1.615-.032.56.276-.062.562-.219.805-.166.257-.194.515-.188.796-.513.016-1.085-.093-1.224.639-.233.029-.472.062-.707.09-.407-.896-.799-.174-1.194.014-.85.318-1.738.219-2.61.241-3.908.104-7.8.394-11.677.896-.512.066-1.035.01-1.555.01-.073-.551-.356-.756-.91-.596-1.159.338-2.155.242-3.319-.391-1.021-.557-2.425-.281-3.598.182-.255.1-.424.389-.668.075-.596-.757-1.248-.415-1.926-.16-1.047.394-1.312-.042-1.479-1.073-.241-1.49.966-2.018 1.504-2.979.133-.238.214-.505.319-.76.599-.021 1.197-.049 1.799-.07.231.032.456.039.601-.196.156-.018.311-.027.465-.037zm-65.356-15.022c.042-.154.042-.409.132-.447 1.063-.443 1.709-1.506 2.81-1.893.521-.184 1.111-.09 1.438-.817.249-.554 1.179-.034 1.397.806.066.252-.033.463-.066.695-.093.643-.41 1.428.656 1.57.934.127 1.574-.419 1.627-1.443.883.938 1.597.602 2.242-.211.139-.173.198-.369.075-.548-.13-.188-.343-.178-.534-.073-.14.076-.255.213-.4.258-.498.147-1.116.332-1.46-.078-.378-.45.396-.56.519-.906.039-.111.115-.211.161-.32.193-.462.279-1.186.98-.918.762.289-.314.782.137 1.289.312.083.608-.295.854-.509 1.091-.948 2.36-.976 3.681-.886.295.021.705.209.829-.197.105-.352-.285-.403-.531-.516-.362-.16-.279-.431-.155-.701.124-.268.28-.486.634-.411.229.048.636.173.664.112.453-.9 1.115-.768 2.016-.804 1.645-.067 2.646.798 2.162 2.438-.062.203-.354.328-.175.613.115.185.397.362.135.604-.167.153-.404.084-.539-.065-.194-.216-.761-.287-.539-.656.516-.864-.274-.824-.642-1.159-.526-.482-.921-.283-1.339.073-.258.221-.671.285-.786.781.744.122 1.961-.152 1.09 1.327-.18.306.461 1.015 1.02 1.224.445.166.748.427.595.854-.185.521-.625.291-1.018.176-1.109-.321-1.058-.034-1.239 1.023-.151.876.614 2.313-1.005 2.716-.168.042-.358.236-.424.406-.483 1.226-1.343 1.771-2.659 1.548-.267.058-.523.041-.76-.106l-.223-.113-.114.007-.109-.037c.038-.651-.268-.946-.921-.946-.357.001-.968-.246-.858-.429.659-1.093-.454-1.334-.845-1.853-.648-.856-2.532-1.22-3.528-.789.411.316.686.821 1.234.881.315.033.701-.116.56.419-.104.396-.516.661-.818.463-1.044-.688-2.311-.724-3.42-1.269-.815-.399-1.383-1.461-2.513-1.188l-.028.005zM-4.07-190.119c.231-1.062-.287-2.009-.468-3.007l.012-.739c.446.002.861-.013 1.13-.483.152-.269.481-.629.77-.41 1.01.771 2.81.556 3.013 2.354.004.031.13.052.197.076.578-.363.261-1.062.562-1.509.561-.827-.112-1.446-.579-1.608-1.396-.481-2.877-.739-4.332-1.051-.394-.084-.71.187-.854.53-.175.42.157.552.485.636.184.047.438 0 .464.272.021.272-.204.416-.396.553-.281.204-.615.127-.931.144-.141-.082-.278-.166-.417-.248-.034-.133-.067-.264-.103-.396.162-.759-.132-1.191-.912-1.277l-.005-.006c-.146-1.123.289-1.355 1.354-1.045.964.282 1.979.465 3.011.309.143.018.286.031.429.049.115.512.354.598.728.208l.467.122c.346.688.949.637 1.567.546.354.058.712.114 1.067.174.45.774 1.093.981 1.919.647.272-.029.545-.062.737.201-.031.481.157.752.679.715.602-.043 1.151.229 1.712.307 1.32.184 2.412 1.335 3.86.885v-.002c-.002.586.394.691.865.768.421.066.734.471.462.762-.829.882-.556 2.02-.854 3.016-.17.568-.423.762-1.033.572-.752-.232-1.543-.217-2.324-.088-.238-.024-.479-.051-.716-.072-1.486-1.338-3.823-1.505-5.283-.379-1.386-.09-2.657-.734-4.109-.727-.581-.002-1.735.195-2.174-.799zm1.325-3.695c.065.029.148.097.198.076.048-.019.062-.123.092-.188-.066-.028-.149-.099-.196-.078-.049.018-.064.121-.094.19zm-67.773 32.543c.715-.772 1.528-1.488 1.081-2.746-.104-.29.265-.354.498-.334.851.074 1.774-.047 2.341.831.265.405.68.356 1.074.356.473.002.954-.037 1.332.356-.154.419-.533.508-.86.581-.839.188-.521.725-.412 1.207.167.738.721.574 1.112.355.443-.246.869-.395 1.355-.336.48.059 1.268-.264 1.347.366.069.55.271 1.343-.396 1.804-.243.168-.263.312-.192.588.17.684-.3 1.299-.93 1.139-1.386-.355-1.821.609-2.274 1.531-.153.312-.094.762-.601.713-.325-.029-.968-.736-.764.195.079.357-.947 1.916.884 1.414.563-.154.983.451 1.356.787-1.822.258-3.616.062-5.272.867-2.023.227-3.656-.788-5.331-1.676-.75-.396-.703-.786.02-1.125 1.579-.741 3.156-1.488 4.76-2.174.949-.402 1.646-1.105 2.352-1.795.722-.703.477-1.705-.455-2.096-.673-.273-1.351-.538-2.025-.808zm3.567-1.885c-.127-.09-.205-.188-.286-.19-.091-.003-.248.062-.267.129-.056.188.099.265.256.25.087-.01.165-.101.297-.189zm-4.53-18.51c.065-.974-.955-1.181-1.349-1.859-.354-.606-1.148-1.028-1.62-1.528-.685-.724-.617.304-.896.174-.313-.211-.147-.522-.216-.774-.068-.266-.151-.744-.255-.752-2.13-.141-1.617-2.66-3.075-3.41-.176-.092-.705-.549-.275-.862.396-.293.929-.795 1.431-.537 1.472.757 3.018.304 4.522.412.726.054 1.467-.175 2.201-.181.991-.008 1.724.425 1.943 1.472.076.358.178.692.489.924l-.063.472c-.195.041-.393.095-.389.347.005.321.242.35.487.354.787 1.314 1.828 2.438 2.789 3.619.731.904.651 1.291-.556 1.614-1.681.447-3.436.404-5.168.515zm-1.016-3.232c-.029.066-.06.134-.086.197.064.028.146.094.193.076.047-.02.062-.123.092-.188a7.91 7.91 0 00-.199-.085zm-3.07 12.779c.507 1.229 1.407 1.823 2.633 1.623.406-.065.683-.027.976.235a2.2 2.2 0 00.604.354c.382.162.984-.5 1.151.112.151.563-.873.429-.87.634.014 1.131-1.003 1.08-1.581 1.498-.484.353-.992.657-.601 1.324.336.573.36 1.598 1.493 1.23.184-.059.369-.104.646-.184.052.604-.259.938-.579 1.274-.183.192-.556.422-.364.676.397.521.129.695-.31.834-.519.165-.883.009-1.224-.455-.396-.544-.032-.687.329-.879.241-.127.386-.312.284-.578-.113-.302-.336-.415-.67-.301-1.098.38-2.292-.647-3.365.229-.136.11-.306.037-.404-.112-1.088-1.644-2.625-1.536-4.25-1.095-.457.123-.616-.283-.873-.504-.281-.237-.442-.479-.291-.929.218-.646.753-.938 1.239-1.213.499-.28.652-.629.44-1.055-.211-.425-.646-.562-1.133-.365a6.756 6.756 0 01-.909.299c-.277.068-.473-.055-.493-.356-.017-.26.032-.45.384-.449.511.001 1.021-.105 1.527-.085.859.036 1.461-.054 1.468-1.183.004-.8.75-.588 1.042-.271.646.697 1.505.4 2.239.645.758.252.758-.83 1.352-.978.004.005.11.025.11.025zm33.856-17.711c-.001.239-.008.479-.001.721.016.632.058 1.188-.868.617-.412-.254-.99-.274-1.501-.324-.358-.032-.87-.192-.954.406-.068.494.229.758.706.758.649-.002.948.295.957.942.003.185 2.565 1.951 2.683 1.858 1.033-.842 1.44-.081 1.88.688.115.202.34.358.612.271.854-.279 1.479-.075 1.821.811.085.219.306.258.504.166.359-.166.637-.568.537-.854-.277-.798-.374-1.623-.568-2.433-.098-.402-.877-.799-.302-1.179.518-.342 1.212-.642 1.963-.142 1.003.666 2.099 1.191 3.219 1.812-.435.365-.916.328-1.347.043-.367-.241-.654-.293-.924.067-.479.64-1.386 1.104-1.276 1.988.079.653.948 1.028 1.448 1.099 1.467.198 2.729 1.176 4.333.919.975-.157 1.253-.48.827-1.271-.361-.668-.053-1.016.374-1.4.47.646.405 1.434.491 2.158.087.73-.532.854-1.12.932-1.815.245-3.588-.154-5.3-.598a164.613 164.613 0 00-9.036-2.035c-1.16-.232-2.307-.559-3.459-.842-.093-.818-.646-.566-1.131-.485-.107.019-.219.036-.327.054l-.013-.389c.135-.07.396-.164.386-.205-.217-1.125.129-2.248.024-3.348-.058-.604-.73-1.443-1.381-1.146-1.05.481-1.817-.054-2.693-.267-.489-.119-.915-.305-1.474-.064-1.193.51-1.505.254-1.574-1.09 3.153.047 6.237.673 9.335 1.157 1.051.167 2.179-.001 3.149.605z"/>
  <path fill="#E02E2D" d="M-4.07-190.119c.438.994 1.593.797 2.175.795 1.452-.011 2.725.636 4.109.726-.74 1.971-.43 3.88.347 5.76.335.81-.271 1.611-1.164 1.351-1.72-.504-3.538-.619-5.194-1.346-.153-1.207.475-2.285.507-3.515.049-1.873.146-2.254-1.28-3.052.034-.33.162-.598.5-.719z"/>
  <path fill="#E02E2D" d="M-4.573-189.4c1.427.798 1.329 1.179 1.28 3.052-.032 1.229-.66 2.308-.509 3.515-.264.008-.549-.048-.717.243l-.95-.086c-.067-.297-.17-.517-.479-.185l-.713-.092c-.207-.752-.78-.617-1.326-.547-2.842-.66-5.793-.854-8.529-1.979.114-.679.418-.304.736-.16.622.278.918.233 1.268-.582.366-.854.542-1.394-.219-2.013-.082-.065-.103-.364-.032-.437.728-.715.24-1.362-.074-2.024 1.465.34 2.924.705 4.396 1.011 1.938.401 3.872 1.012 5.868.284zm-.266 3.787c-.154-1.869-.807-2.774-2.52-2.485-1.254.212-2.382-.349-3.591-.401-.514-.021-1.16-.027-1.294.297-.271.659-.941 1.365-.559 2.09.372.699.928 1.285 1.923 1.396 1.323.146 2.648.377 3.966.604.998.171 2.112-.517 2.075-1.501zm-49.356-5.978c.069 1.343.381 1.601 1.574 1.09.559-.237.982-.055 1.474.064.876.213 1.646.749 2.693.267.649-.3 1.324.542 1.381 1.146.104 1.099-.241 2.222-.024 3.347.011.041-.251.135-.386.205a3.595 3.595 0 01-1.346-.306c-.511-.222-1.193-.838-1.4-.717-1.033.608-1.707-.238-2.53-.416.266-.642.134-1.106-.637-1.043-1.211.103-1.516-.898-1.842-1.63-.18-.401-.13-.918-.513-1.321-.326-.346.138-.522.314-.746.422-.101.837-.128 1.242.06zm43.968 33.746c-.783-.138-1.494-.002-2.119.524-.464.391-.921.645-1.616.453-.646-.179-1.181.358-1.729.672-.472.271-.85.47-.659-.426.124-.582-.158-1.25-.812-1.216-1.021.054-1.14-.764-1.244-1.289-.148-.729.713-.831 1.181-.874.931-.084 1.839-.376 2.812-.164 1.348.291 2.731.168 4.104.12.422-.015.798.054 1.007.479.017.107.03.221.045.328-.054.656-.612.955-.97 1.393zm-16.62-28.874c-.042-1.05-.896-.854-1.499-.904-1.566-.14-2.982-1.771-2.78-3.302.016-.116.057-.231.1-.343.171-.438-.442-.985.108-1.321.598-.362 1.306-.034 1.837.146.566.195.565 1.082.659 1.649.288 1.785 2.071 3.362 3.917 3.41.834.021 1.254-.321 1.169-1.071-.108-.943.301-.611.713-.375.455.26.936.432 1.458.467.292.021.626.059.695.355.323 1.34 1.38 1.729 2.521 2.012.258.064.437.178.476.454-2.132-.536-4.296-.919-6.466-1.267-.976-.155-1.951-.33-2.908.09zm5.369 26.143c-1.162 1.017-2.674 1.312-4.418 1.865.986.477 1.577.598 2.184.114.09-.072.219-.203.283-.183.461.16 1.18.306 1.218.694.057.578-.633.468-1.026.429-1.46-.143-2.938.252-4.444-.09.24-.787.954-.479 1.607-.834-.523-.31-.694-.979-1.451-.369-.196.158-.614.086-.922.056-.334-.037-.576-.728-.99-.181-.369.485-.379 1.039-.062 1.571.101.168.259.3.375.459.137.188.134.396-.073.507-.123.067-.302.032-.456.043.001-1.19-1.581-.688-1.792-1.668-.029-.134-.182-.315-.304-.341-1.222-.233-.551-.907-.358-1.472.797-.028 1.593-.059 2.39-.085.23.33.385.233.492-.093.638-.215 1.282-.151 1.93-.079.163.211.316.194.461-.022 1.195-.094 2.393-.188 3.59-.279.582-.021 1.165-.039 1.747-.059l.019.017zm-41.114-27.826c-.406-.938-1.62-.694-2.185-1.563-.417-.644-.396-.623.269-.858 1.865-.66 3.755-.289 5.591-.09 1.06.115.588 1.463.844 2.239.071.22-.123.522-.196.791-.472-.047-.944-.418-1.415.004-.971-.176-1.938-.35-2.908-.523zm-48.549 14.506c1.13-.272 1.696.786 2.513 1.188 1.11.545 2.376.58 3.42 1.268.304.199.715-.065.818-.463.143-.534-.245-.385-.56-.418-.55-.06-.823-.562-1.234-.881.996-.431 2.88-.067 3.528.789.391.519 1.504.76.845 1.853-.108.182.501.43.858.429.654 0 .959.294.921.946-2.543-.519-4.93-1.507-7.327-2.455-1.03-.408-2.016-.931-3.013-1.416-.356-.174-.713-.376-.769-.84z"/>
  <path fill="#CD1A17" d="M-4.517-182.593c.168-.291.453-.235.717-.243 1.658.727 3.479.842 5.196 1.346.892.263 1.499-.541 1.164-1.351-.776-1.88-1.086-3.789-.347-5.76 1.46-1.126 3.797-.959 5.283.379-.732-.147-1.497-.208-2.193-.457-2.303-.825-3.081.61-2.935 2.813.054.812.448 1.601.672 2.403.55 1.994-.28 2.908-2.217 2.332-1.769-.523-3.684-.523-5.34-1.462zm-4.051 22.568c-.849-1.19-2.227-.772-3.312-.873-1.226-.108-2.554-.408-3.749-.055-1.448.428-2.889.424-4.35.435-.396.002-.795-.033-1.19-.054.814-.752 1.887-.446 2.811-.547 2.321-.248 4.664-.455 7.009-.306.746.049 1.5.149 2.224.337.463.121 1.09.333.557 1.063zm16.781-28.123c.781-.129 1.572-.146 2.324.089.61.188.863-.004 1.033-.572.297-.996.023-2.134.854-3.016.272-.291-.041-.693-.462-.761-.473-.076-.867-.183-.865-.769.236.021.479.015.708.065 1.261.291 1.451.66 1.036 1.875-.4 1.175-.785 2.354-.965 3.586-.074.514-.453.578-.754.449-.945-.4-2.03-.359-2.909-.946z"/>
  <path fill="#E02E2D" d="M-37.831-191.473c.78.508 1.555 1.029 2.352 1.514.469.285.643.717.627 1.2-.008.271-.283.501-.56.571-.618.156-.606-.436-.879-.729-.45-.488-1.452-.273-1.624-1.199.026-.452.054-.904.084-1.357z"/>
  <path fill="#CD1A17" d="M-19.886-149.016c-.002.57-.417.803-.84 1.045-.219.124-.602.188-.454.566.113.291.433.349.713.312 1.294-.15 2.572.311 3.874.033.395-.084.871-.166 1.256.152-2.304.904-4.567.36-6.828-.184-.456-.109-.497-.508-.102-.637.886-.282 1.537-.955 2.381-1.287zm-32.873-37.894c.823.178 1.497 1.024 2.53.416.207-.121.892.496 1.4.717.46.201.878.285 1.346.306l.013.39c-1.549.213-2.896-.615-4.354-.884-.629-.114-1.268-.401-1.913-.567.179-.512.615-.351.978-.378zm63.856-6.265c-1.448.45-2.54-.7-3.86-.885-.561-.078-1.11-.349-1.712-.306-.521.035-.71-.232-.679-.717 2.19.294 4.274.927 6.251 1.908zm1.301 40.347c-.755-.584-.354-1.48-.487-2.201-.19-1.008-.606-1.239-1.495-1.187-.412.024-.883.166-1.242-.206.791-.413 1.638-.164 2.459-.195.467-.019.545.353.637.717.252 1.016.313 2.039.128 3.072zm-14.465-44.197c-1.03.156-2.047-.025-3.011-.31-1.063-.312-1.498-.077-1.354 1.046-.032-.021-.083-.031-.101-.062-.271-.463-.82-.968-.492-1.459.273-.408.986-.224 1.447-.114 1.176.278 2.438.227 3.511.899zm-18.784 42.906c.139-.73.711-.625 1.224-.64.556 0 1.109.019 1.666-.004.486-.021.76.153.734.674-1.208.027-2.417.136-3.624-.03zm7.693 7.014c.246-.832 1.017-.447 1.501-.541.75-.146 1.521-.73 2.336-.176-1.221.549-2.506.758-3.837.717zm21.852-9.231c-1.304.626-2.655.79-4.064.438 1.324-.432 2.688-.486 4.064-.438z"/>
  <path fill="#E02E2D" d="M-15.318-190.751c-1.388.498-2.149.328-2.381-.53.821.058 1.654.061 2.381.53z"/>
  <path fill="#CD1A17" d="M-59.686-187.882c.472-.422.943-.051 1.415-.004.656.177 1.425.04 1.914.685-1.106-.24-2.315.02-3.329-.681zm63.795-7.397c-.826.334-1.469.127-1.919-.648.712.003 1.359.198 1.919.648zm-20.94 41.518c.854.539.795 1.197-.169 1.874.197-.611.315-1.23.169-1.874zm28.388 2.779c.312-.375.622-.752.933-1.129.623 1.147-.136 1.154-.933 1.129zM1.122-196.103c-.618.091-1.224.142-1.567-.548.618-.091 1.143.081 1.567.548zm-7.548-.182c.78.088 1.074.521.912 1.278-.502-.284-.594-.86-.912-1.278zm-1.56 12.784c.546-.069 1.119-.204 1.326.548-.518 0-1.01-.059-1.326-.548zm-39.157-1.637c.482-.081 1.038-.333 1.131.485-.485.092-.882-.026-1.131-.485z"/>
  <path fill="#E02E2D" d="M-27.631-184.755c-.271-.024-.623.009-.594-.396.03-.387.389-.311.652-.332l-.058.728z"/>
  <path fill="#CD1A17" d="M-18.947-149.781c.139.812-.38.814-.94.771.215-.381.504-.665.94-.771zm-2.556-10.809c-.582.02-1.165.038-1.747.059.575-.196 1.147-.569 1.747-.059zm-1.25 6.572c.396-.188.786-.91 1.194-.014-.396.007-.796.011-1.194.014z"/>
  <path fill="#E02E2D" d="M-39.07-189.757c-.191.56-.43.621-.726.065.242-.02.484-.042.726-.065z"/>
  <path fill="#CD1A17" d="M-5.412-194.609c.139.082.276.166.417.248l.021.459a5.598 5.598 0 01-.111.102c-.35-.175-.395-.47-.327-.809z"/>
  <path fill="#E02E2D" d="M-68.543-187.422c-.245-.005-.482-.031-.487-.354-.004-.252.192-.305.389-.346.031.234.065.468.098.7z"/>
  <path fill="#CD1A17" d="M-.912-196.771c-.373.39-.61.304-.728-.208.273-.032.544-.068.728.208zm-54.791 9.687c.328-.423.481-.265.558.166-.291.295-.439.116-.558-.166zm51.177-6.781l-.012.739c-.297-.133-.45-.383-.548-.678.038-.031.073-.063.11-.101.152.016.3.027.45.04z"/>
  <path fill="#E02E2D" d="M-29.23-160.148c-.107.326-.262.423-.492.093.135-.193.303-.205.492-.093z"/>
  <path fill="#CD1A17" d="M-5.947-182.861c.311-.332.411-.112.479.185-.198.041-.365-.003-.479-.185zm-12.265 32.399c.012.371-.183.509-.533.464.072-.275.241-.44.533-.464z"/>
  <path fill="#CD1A17" d="M-17.759-151.004c.053.354-.075.555-.455.544.016-.295.191-.456.455-.544zm8.501-8.228c-.015-.108-.028-.221-.045-.329l.479.012c-.068.208-.244.274-.434.317z"/>
  <path fill="#E02E2D" d="M-46.273-158.84c-.145.235-.367.229-.601.196.157-.195.359-.256.601-.196zm19.433-1.412c-.145.219-.298.233-.463.022.156-.006.31-.014.463-.022z"/>
  <path fill="#CD1A17" d="M-8.575-147.93c.083-.033.166-.064.249-.1-.083.036-.166.066-.249.1z"/>
  <path fill="#E02E2D" d="M-99.806-169.154c.074.039.148.076.223.113l-.223-.113zm-99.784-27.186c.521.63.439 1.447.681 2.168-.571-.028-1.083.023-1.085.857.396-.048.761-.09 1.125-.132.245.826.556 1.683-.758 1.88-.171-.365-.388-.843-.788-.806-1.083.101-1.435-.729-1.965-1.356-.104-.119-.182-.291-.312-.345-.332-.134-.739-.241-.928.171-.19.422.039.663.502.692.261.017.698.024.466.426-.604 1.05.279.886.774 1 .332.076.747-.062.816.459-4.89 1.011-9.845.776-14.783.793-4.074.013-8.148-.003-12.224-.008-.738 0-1.557-.008-1.723.906-.169.934.386 1.614 1.194 2.006 1.716.832 3.434 1.666 5.193 2.396 3.511 1.45 7.064 2.789 10.565 4.26 1.669.699 3.356 1.392 4.839 2.484.714.527.64.84-.061 1.319-1.827 1.251-3.896 2.131-5.489 3.75-1.843 1.875-1.697 2.826.715 3.754.109.043.204.121.305.183-.357.061-.583.243-.494.631.095.416.453.353.757.354.229.002.509.019.573-.269.12-.521-.518-.364-.646-.68 2.897.057 5.762.491 8.64.78-.063.498-.394.644-.846.655-.575.015-.71.281-.403.771.275.438.511.908.835 1.306.308.371 1.02.621.346 1.192-.432.364-.288 1.119-.981 1.275-.271.061-.883-.195-.707.438.106.38.377.812.94.774.276-.02.593-.081.833.017.692.282 1.708.08 1.899 1.177l-.001.25c-.316-.012-.636-.021-.954-.033-.377-.771-.912-.484-1.442-.217-.158-.012-.316-.021-.476-.033-.527-.653-1.165-.83-1.93-.435-.314-.028-.628-.06-.942-.09a1.195 1.195 0 00-.018-.187c.077-.672.795-1.014.768-1.817-.036-1.103-.206-2.188-.873-3.133-.052-.073-.021-.228.01-.331.101-.354.125-.689-.372-.63-.282.034-.702.112-.624.557.062.354.114.666-.321.731-.344.054-.392-.336-.587-.51-.256-.226-.394-1-.785-.599-.741.761-1.592.527-2.349.418-.808-.118-1.002.031-1.16.815-.122.604.143 1.589-.637 1.783-1.135.283-.479.694-.219 1.104.146.228.442.354.428.685-1.04-.019-2.081.431-3.118-.013-.267-.733.847-1.123.64-1.512-.625-1.177.222-1.158.887-1.359.205-.062.383-.159.343-.407-.057-.34-.393-.513-.612-.465-1.53.323-2.952-.604-4.471-.341-.579.101-.977-.192-1.207-.728 1.573-.815 1.572-.813 3.185-.271.149.05.324.023.471.078.73.271.854-.032.682-.676-.292-1.101-1.229-.943-2.018-1.025-1.136-.118-2.276-.174-3.417-.256.161-.588 1.136-.647.945-1.461.201-.246.483-.204.75-.212.367.013.71-.007.688-.516.132-.246.265-.489.396-.735.006-.502.524-1.166-.431-1.365-.223-.095-.442-.188-.663-.284-.189-.818-.807-.933-1.503-.906-1.638-.942-3.354-1.748-4.981-2.688-5.177-2.996-10.591-5.59-15.559-8.933-2.431-1.635-5.04-3-7.295-4.891.187-.068.37-.158.562-.203 1.62-.371 3.112.743 4.741.414.278-.058.381.385.59.524.631.424.818 1.459 1.965 1.258.318-.055 1.334.347 1.27 1.027-.129 1.319.681 1.608 1.625 1.651.703.029 1.013 1.096 1.903.606-.521-.463-1.002-.886-1.497-1.322.139-.086.228-.177.265-.159 1.399.683 3.037.211 4.433.901.346.172.559.271.832-.215.671-1.175-.279-1.781-.748-2.572-.391-.659-.834-1.09-1.627-.543-.563.39-.894-.062-.976-.455-.205-.987-.72-.848-1.388-.534-1.577.739-3.021-.279-2.829-2.022.051-.464.019-.847-.449-.945-.639-.137-.73-.651-.94-1.104 1.999-.229 3.992-.532 5.997-.678 4.078-.293 8.136-.772 12.196-1.232 2.802-.317 5.602-.655 8.401-.984l.35-.005c.19-.005.385-.009.577-.015 1.391.111 2.766.152 3.933-.812.119-.054.237-.106.356-.161.438.062.604-.128.519-.556.034-.112.068-.228.104-.341.856-.354.404-.653-.041-.952l-.001-.004-.016-.302-.029-.317c.15-.426-.116-.94.284-1.312.129-.062.353-.1.37-.184.062-.266-.185-.263-.359-.303l-.717-1.188c.269-.045.75-.045.771-.139.229-1.15 1.035-.572 1.637-.588.841-.062 1.61.251 2.406.438.376.092.768.525 1.183.063l.716.126c.58.758 1.447.676 2.256.768 2.639.121 5.07 1.131 7.579 1.793 2.301.607 4.532 1.512 6.857 1.953 1.64.312 3.213.822 4.823 1.209 3.028.727 6.002 1.691 9.036 2.404 2.729.643 5.492 1.254 8.333.615.03.412-.085.658-.562.734-.467.074-1.024.157-1.344.453-.864.805-1.599 1.779-3.136.973.865.643.74 1.32.28 1.812-.473.502-1.188.554-1.697-.034-.376-.435-1.266-.15-1.307-.869-.03-.572.713-.713.979-1.186.271-.48.589-.973.019-1.343-1.354-.878-3.677-1.119-5.542-.669-.274.066-.34-.094-.422-.284-.14-.325-.394-.472-.773-.445-.133.396.514.627.203 1.065-.243.348-.443.999-.926.533-.562-.543-2.033-.332-1.676-1.532.221-.744.071-.824-.497-.907-.307-.045-.451-.293-.667-.46-1.13-.873-1.799-.873-2.863-.006-.218.178-.402.237-.644.136-.627-.27-1.044-.109-1.359.521-.345.69.062 1.109.514 1.408.971.646 1.755 1.498 2.897 1.979 1.345.565 2.523 1.133 4.079 1.104.2-.004.271.152.279.315.016.335.301.403.487.594 1.064 1.07 2.604 1.115 3.819 1.845.415.248.73.285 1.13-.162.422-.476 1.812-.176 1.981.404.231.786.831.797 1.445.997.799.263 1.604.093 2.401.207 1.4.201 2.742.841 4.28.466.836-.205 1.956.086 2.741.523.834.466 1.75.788 2.26.141.46-.584 1.182-1.556.396-2.49-1.014-1.211.489-2.344.062-3.521l.556-.157c.143 2.019.489 4.021.05 6.06-.233 1.089-.805 1.352-1.831 1.397-4.917.225-9.45-1.262-14.015-2.826-4.407-1.515-8.667-3.405-12.903-5.272-3.319-1.465-6.746-2.508-10.104-3.795-.881-.337-1.648-.966-2.671-.849-.316-.595-.044-1.23-.106-1.851-.066-.685.865-1.14 1.531-.922 1.565.508 2.976 1.463 4.626 1.696.771.108 1.589.467 2.449.089-1.171-1.228-3.023-.502-3.994-1.83-1.217.469-2.115-.433-3.151-.736-.92-.271-3.092.423-3.728 1.009-.382.354.176.969-.292 1-1.551.108-.445.754-.276 1.188.168.435.622.741.541 1.29-.042.287-.073.589-.412.638-.304.043-.38-.259-.457-.467-.24-.651-.454-1.315-.736-2.156-.452.88-1.186.991-1.786 1.298-1.773.897-1.812 1.008-.636 2.569.354.472 1.556 1.248 2.379 1.526.851.287 1.629.521 2.312-.452.331-.447 1.011-.662 1.531-.992zm-6.751-4.314c-.912-.055-1.621-.178-1.243-1.455.185-.623-.164-1.314-.7-1.807-.257-.236-.527-.43-.792-.053-.242.348-.077.541.295.709.746.339 1.014.801.412 1.574-.321.418-.208.99.387 1.14.53.132 1.193 1.231 1.646-.104.577.047.783-.238.702-.783-.025-.162-.096-.344-.276-.305-.461.104-.413.498-.428.848-.004.079-.002.158-.003.236zm-7.676 6.002l.001.002c-.035.112-.036.287-.111.328-.576.32-.583.76-.354 1.307.251.602.678.57 1.185.42.137-.041.405-.043.437.021.631 1.311 1.732.453 2.583.502 1.066.062 2.481.166 1.934-1.73-.015-.043.12-.113.138-.186.398-1.545-.728-3.894-2.08-4.334-.091-.029-.278-.009-.303.043-.518 1.119-1.706.833-2.547 1.26-.863.438-1.375 1.264-1.484 2.221-.059.477.402.041.601.146zm-6.724 3.526c1.243-.269 2.396-.835 3.421-1.511.632-.416.801-1.391.279-2.121-.954-1.344-3.262-1.812-4.909-1.379-1.062.277-2.037 1.033-3.235.768-.276-.061-.587-.359-.846.059-.223.359-.36.791-.143 1.127.22.34.625.94.918.801 1.403-.678 1.89.646 2.422 1.248.635.712 1.168 1.062 2.093 1.008zm-10.686-1.429c.477 1.222.55 1.25 1.468.705.108-.063.295-.021.439.006.585.104 1.088-.104 1.27-.633.288-.834-.179-1.684-.128-2.545.007-.123-.346-.01-.536.002-1.006.06-2.015.088-3.021.127-.769.031-1.95-.201-.688 1.104.19.196-.239.543.155.754.312-.124.633-.317.975-.368.364-.057.824-.227 1.071.229.079.146.047.4-.024.566-.264.62-.659-.14-.981.053zm7.303 8.676c-.091-.1-.194-.307-.353-.365-1.173-.449-2.136-1.402-3.452-1.479-.598-.034-1.291-.314-1.474-.65-.765-1.426-1.891-.322-2.806-.525-.276-.062-.444.336-.426.611.021.334.333.244.561.258.236.014.701-.435.65.192-.062.767.379.554.739.459.311-.081.664-.274.914-.06 1.458 1.258 3.566.713 5.06 1.865.237.182.542.249.587-.306zm21.441-18.092c-.272-1.006-.864-1.821-1.894-1.979-.898-.135-1.798-.117-2.578-.688-.187-.139-.479-.164-.669.016-.25.236.033.413.131.607.627 1.234 2.009 1.312 3.03 1.93.577.349 1.303.657 1.98.114zm-14.972 27.189c-.087-.094-.188-.284-.35-.366-1.339-.688-2.69-1.354-4.033-2.035-.339-.172-.666-.189-.769.213-.094.356.258.717.517.686.924-.109 1.218.652 1.674 1.135.281.297.529.422.911.426.548.008 1.11-.102 1.604.304.253.202.444.064.446-.363zm27.281-25.344c.173.444.394.685.816.614.054-.01.146-.119.134-.152-.136-.382-.441-.484-.95-.462zm-14.615 6.129c-.065-.028-.146-.096-.194-.077-.05.021-.063.123-.094.19.066.028.148.097.196.075.049-.017.064-.119.092-.188z"/>
  <path fill="#E02E2D" d="M-201.778-161.059c-.191-1.096-1.208-.894-1.899-1.176-.24-.098-.557-.035-.833-.017-.562.037-.834-.396-.94-.774-.176-.633.436-.377.707-.438.694-.156.552-.911.981-1.275.674-.572-.039-.822-.346-1.191-.324-.396-.561-.867-.835-1.307-.308-.488-.172-.756.403-.771.452-.015.781-.157.846-.655h.957c.109.514.524.379.865.412.648.062 1.562-.104 1.882.256.55.615 1.016.426 1.586.344.473-.064.948-.097 1.424-.113.389-.018.635.002.59.59-.075.971.057 1.941-.263 2.908-.188.567.243 1.072.714 1.203.532.146.327-.5.483-.773.382-.672.524-1.566 1.593-1.547.374.006.542-.217.269-.535-1.028-1.193.128-.85.635-.879a6.275 6.275 0 011.66.136c.845.175 1.801.437 2.578.207 2.208-.649 4.285-.093 6.396.329.311.062.757.078.675.502-.2 1.055.592 1.176 1.236 1.479.182.086.343.246.531.107.247-.182.169-.426.02-.632-.514-.709.013-.671.486-.707.312-.024.775.01.908-.173.956-1.314 2.319-.613 3.502-.776.733-.103 1.276.212 1.746.793.899 1.118 2.196 1.188 3.388.322.531-.386 1.089-.636 1.871-.53.674.092 1.218.579 1.871.498.509-.062.992-.836 1.475-.41.676.6-.646.883-.428 1.504l.006-.008c-.946.053-1.984 1.096-1.851 2.102.112.846 1.036.195 1.505.514.079.055.23-.003.352-.009l-.014-.007.251.254-.005-.016c.422 1.021 1.129.906 1.914.482.233.023.471.049.706.074.161.543.417.551.748.132l1.154.014c.131.339.367.522.736.522l.003.004c-.021.428-.007.908-.646.445-.274-.195-.64-.354-.854-.061-.229.314.025.684.239.957.539.688.496 1.148-.253 1.531-.357.184-.574.371-.501.961.621-.826 1.421-.174 2.076-.46.354-.155.708-.815 1.011-.118.17.389.743 1.088-.26 1.434-.363.125-.501.539-.009.803.237.127.632.178.484.533-.146.365-.629.295-.842.174-.931-.533-1.787.268-2.696.078-.35-.07-.378.324-.396.607-.158.004-.316.01-.477.016-.023-.15-.053-.328-.246-.322-.189.006-.213.183-.233.334-3.113.186-6.212.123-9.282-.52-.972-.203-1.962-.314-2.943-.472-.086-.483-.956-.454-.739-1.134.084-.076.169-.151.253-.229.339.007.57-.155.718-.454l.032-.012c1.26.131 1.98-.93 2.915-1.451.482-.27.248-1.357.093-2.037-.146-.629-.808-.365-1.234-.359-.628.008-1.267.27-1.878.203-2.216-.234-4.438-.025-6.654-.215.729-.699.829-1.947 2.035-2.279.168-.045.565-.773.103-1.144-.402-.315-.589.188-.859.386-.588.43-1.214.793-1.134 1.689.014.156-.336.514-.452.486-1.117-.252-1.882.562-2.81.865-.633.082-1.292-.188-1.9.164h-.512c-.24-.223-.475-.221-.695.028l-.513-.087a68.047 68.047 0 01-.287-.062l-.405-.006c-.061-.586-.529-.422-.89-.529-.935-.281-1.917-.1-2.875-.551-.611-.285-1.612-.883-2.156-.438-.943.773-1.826.509-2.773.371-.402-.061-.808-.221-.908.387l-.958-.023c-.466-.893-1.301-.245-1.928-.458zm38.789 1.274c-.024-.068-.037-.172-.085-.191-.047-.021-.13.041-.198.067.026.067.037.171.084.192.048.021.132-.041.199-.068zm5.084-34.149l-.556.156c.429 1.18-1.074 2.312-.062 3.521.784.936.062 1.906-.396 2.49-.51.646-1.426.324-2.26-.142-.785-.438-1.905-.729-2.741-.522-1.538.375-2.88-.266-4.28-.467-.798-.113-1.604.056-2.4-.207-.615-.199-1.214-.211-1.446-.998-.172-.578-1.562-.879-1.981-.402-.397.445-.715.41-1.13.162-1.215-.729-2.755-.773-3.817-1.846-.188-.188-.476-.259-.489-.594-.008-.162-.079-.318-.279-.314-1.555.025-2.733-.539-4.079-1.105-1.145-.479-1.929-1.332-2.897-1.979-.45-.299-.856-.719-.514-1.408.315-.633.732-.791 1.359-.521.239.104.426.041.644-.137 1.064-.867 1.733-.867 2.863.006.216.167.36.415.667.46.568.083.718.163.497.907-.354 1.201 1.115.99 1.676 1.533.48.465.683-.188.928-.534.309-.438-.337-.671-.205-1.065.382-.024.636.121.773.445.082.191.146.352.422.284 1.865-.45 4.188-.208 5.542.669.57.37.253.861-.019 1.343-.268.472-1.012.611-.979 1.187.041.718.931.436 1.307.867.51.59 1.226.537 1.698.035.46-.49.585-1.17-.281-1.812 1.537.81 2.271-.168 3.136-.972.317-.297.877-.379 1.344-.453.479-.077.596-.323.562-.735l.504-.51c.624-.166 1.285-.13 1.895-.433.25-.125.846-.103.911.034.717 1.458 3.081.539 3.482 2.433.02.093.435.102.665.147-.027.161-.044.319-.064.477z"/>
  <path fill="#E02E2D" d="M-162.182-153.203c.019-.283.047-.68.396-.607.909.188 1.765-.611 2.696-.078.213.121.691.191.842-.174.146-.355-.247-.406-.484-.533-.492-.264-.354-.678.009-.803 1.003-.346.43-1.045.26-1.434-.303-.697-.657-.037-1.011.118-.654.286-1.455-.366-2.076.46-.073-.59.144-.777.501-.961.749-.383.792-.846.253-1.531-.214-.273-.469-.643-.239-.957.215-.295.579-.137.854.061.641.463.624-.02.646-.445.02-.034.036-.068.054-.104l-.057.1c-.369 0-.607-.186-.736-.522 1.438-.247 2.887-.343 4.342-.36-.137.763.055 1.565-.412 2.295-.19.296.08.594.427.723.313.119.718.121.841.637-1.072.17-1.781.504-.572 1.52.289.24.058.49-.127.719-.209.262-.624.412-.51.869 1.919.061 3.819-.247 5.737-.139.7.039 1.486-.242 1.938-.727.47-.501-.418-.812-.56-1.271-.068-.223.005-.482-.054-.713-.248-.979-.019-2.353-1.745-2.162-.142.018-.412-.199-.445-.351-.278-1.253-1.262-.915-2.096-1.013-.651-.077-1.438.402-1.946-.395 2.759.055 5.462-.521 8.158-.928 2.97-.443 5.919-1.131 8.896-1.559 2.796-.402 5.532-1.078 8.312-1.545.402-.068.799-.119 1.006.357-1.438.229-2.582 1.246-4.123 1.354-.878.061-2.132.275-2.356 1.664-.114.723.224 1.592-.584 2.131.815.516.841 1.238.558 2.057-.011.029.171.152.276.189 1.427.494 2.858.832 4.354.264.335-.129.753-.469.942.193-4.046.812-8.134 1.328-12.232 1.754-.038-.492.19-.875.677-.689.938.359 1.634 0 2.423-.439.65-.361 2.083-.08.858-1.506-.135-.154.098-.604.112-.916.078-1.643-.672-2.25-2.29-2.342-.915-.054-1.665.038-2.472.443-.51.256-1.132.498-1.723.348-.457-.115-.797-.107-1.022.307-.265.48-.324 1.037.053 1.457.322.355.454.4-.021.838-.697.645-.297 1.513.628 1.811.551.178 1.061.48 1.587.729-1.357.648-2.854.57-4.292.771-4.557.637-9.108 1.385-13.739 1.145-.244-.018-.479-.075-.712-.11zm9.61-41.24c-.174-.037-.348-.074-.521-.109-.218-.584-.591-1.225-1.092-1.394-1.477-.497-1.86-1.348-.949-2.517.119-.152.312-.327.306-.484-.054-1.139.763-1.152 1.537-1.236 2.383.472 4.642 1.357 6.957 2.061 2.36.716 4.699 1.498 7.046 2.256.529.17 1.053.355 1.579.534.498.387.843 1.333 1.685.46.198-.023.385-.004.514.175-.391.61-.423 1.325-.435 1.993-.008.57.293 1.188 1.038.622.438-.332.729-.491 1.219-.065.271.233.771.389 1.113.313 1.662-.354 2.769.62 3.919 1.519.189.725-.241 1.387-.188 2.107.04.572-.424.555-.851.521-1.262-.104-2.263-.896-3.419-1.276-1.604-.531-3.207-1.081-4.825-1.574-1.848-.563-3.7-1.112-5.569-1.599-1.913-.493-3.849-.91-5.774-1.348-.972-.22-1.918-.498-2.816-.933-.148-.231-.304-.251-.474-.026z"/>
  <path fill="#E02E2D" d="M-153.291-200.184c-.774.084-1.591.1-1.537 1.236.008.157-.187.332-.306.484-.911 1.169-.525 2.02.949 2.517.501.169.874.81 1.092 1.394-.794-.104-1.544-.34-2.287-.637-1.013-.404-1.938-.396-2.47.781-.23-.048-.646-.057-.665-.148-.401-1.893-2.767-.974-3.482-2.432-.067-.137-.661-.16-.911-.035-.607.303-1.271.268-1.895.434-.372-1.928-.062-3.887-.29-5.818-.124-1.031.476-1.336 1.293-1.066 2.175.718 4.478.967 6.577 1.986 1.231.597 2.617.881 3.932 1.304zm-89.532 4.802c.21.452.305.969.94 1.104.468.1.5.481.449.944-.19 1.744 1.252 2.765 2.831 2.022.668-.312 1.181-.453 1.386.535.082.394.41.844.976.455.793-.548 1.236-.117 1.627.543.471.791 1.419 1.397.748 2.571-.273.483-.484.388-.832.215-1.396-.688-3.029-.221-4.433-.899-.037-.02-.126.072-.263.158.493.438.975.858 1.495 1.321-.893.488-1.2-.577-1.903-.606-.943-.043-1.753-.332-1.625-1.651.064-.681-.95-1.082-1.27-1.026-1.146.2-1.334-.834-1.965-1.259-.209-.141-.312-.582-.59-.524-1.629.33-3.121-.785-4.741-.414-.19.045-.375.135-.562.203l.002-.024c.116-1.573.104-1.515 1.695-1.188.964.195 1.866-.23 2.426-1.008.446-.621.83-.816 1.576-.602.698.201 1.482.253 1.555-.846.163-.007.32-.016.478-.024zm77.778 31.234c-.218-.621 1.104-.904.428-1.504-.48-.426-.966.348-1.475.41-.653.081-1.197-.406-1.871-.498-.782-.104-1.34.146-1.871.53-1.19.866-2.487.796-3.388-.322-.47-.581-1.013-.896-1.746-.793-1.183.163-2.546-.538-3.502.776-.133.183-.597.146-.908.173-.478.036-1-.002-.486.707.149.206.229.45-.02.632-.188.139-.352-.021-.531-.107-.646-.305-1.438-.427-1.236-1.479.082-.424-.364-.439-.675-.502-2.113-.422-4.188-.979-6.396-.329-.776.229-1.732-.032-2.578-.207a6.285 6.285 0 00-1.66-.136c-.507.029-1.663-.314-.635.879.273.32.105.541-.269.535-1.066-.021-1.211.875-1.593 1.547-.156.273.049.922-.483.773-.471-.131-.899-.636-.714-1.203.317-.967.188-1.938.263-2.908.045-.588-.201-.605-.59-.59-.476.019-.951.049-1.424.113-.57.082-1.036.271-1.586-.344-.32-.359-1.232-.191-1.882-.256-.341-.033-.756.102-.865-.412 3.073-.139 6.149.018 9.188.352 4.621.513 9.244.926 13.877 1.297 4.573.363 9.143.436 13.721.479 1.077.012 2.083.403 3.295.688-.961.551-1.373 1.523-2.388 1.699zm-57.853-5.549c1.141.082 2.281.137 3.417.256.786.082 1.725-.074 2.018 1.025.172.645.05.947-.68.676-.146-.055-.322-.027-.473-.078-1.609-.543-1.608-.545-3.185.271.229.533.627.826 1.207.727 1.519-.264 2.939.664 4.471.34.222-.047.558.125.612.465.04.248-.139.349-.341.408-.666.201-1.514.186-.889 1.359.207.389-.903.777-.64 1.512l-1.438-.004c.048-.539-.199-.77-.732-.699-.521.035-.451.436-.477.774-.156-.021-.315-.038-.475-.06-.074-.168-.152-.176-.236-.008l-.709-.055c-.116-.297.229-.947-.524-.761-1.3.321-2.007-1.396-3.337-.948-.036.012-.205-.176-.193-.252.141-.951-.591-.676-1.059-.77-.35-.064-.717-.08-1.041-.205-.244-.094-.515-.287-.473-.613.017-.118.188-.234.312-.316.289-.188.549-.115.694.186.454.92.7.377.785-.148.12-.742 1.111-1.229.598-2.158-.083-.147.188-.396.372-.387.862.045 1.546-.666 2.416-.537zm92.875 12.894c-.188-.662-.605-.322-.941-.193-1.494.568-2.928.23-4.354-.264-.105-.037-.288-.16-.276-.189.281-.816.26-1.541-.558-2.057.808-.539.47-1.408.584-2.131.227-1.389 1.479-1.604 2.356-1.664 1.541-.105 2.686-1.122 4.123-1.354.547 2.021.566 4.109.822 6.17.173 1.401-.207 1.799-1.756 1.682zm-69.567-39.537c-.521.328-1.201.546-1.527 1.011-.683.974-1.462.74-2.312.452-.823-.278-2.024-1.057-2.379-1.525-1.176-1.562-1.139-1.673.636-2.57.602-.307 1.334-.418 1.786-1.297.285.84.497 1.504.736 2.155.077.208.153.511.457.468.341-.05.37-.352.412-.639.081-.549-.373-.855-.541-1.29-.169-.435-1.273-1.08.276-1.188.467-.031-.091-.646.292-.998.635-.588 2.808-1.278 3.728-1.01 1.036.306 1.937 1.205 3.151.735.971 1.328 2.823.604 3.994 1.83-.86.378-1.679.021-2.449-.088-1.648-.233-3.061-1.188-4.626-1.697-.666-.217-1.6.238-1.531.923.062.617-.21 1.256.106 1.85-.868.9-.447 1.894-.209 2.878zm44.131 35.358c.509.797 1.295.315 1.946.395.834.098 1.815-.24 2.096 1.013.033.149.306.366.445.351 1.728-.188 1.497 1.186 1.745 2.162.059.229-.017.49.054.713.142.457 1.025.771.56 1.271-.452.482-1.238.766-1.938.727-1.917-.108-3.818.197-5.737.139-.114-.457.301-.607.51-.869.185-.229.416-.479.127-.719-1.209-1.016-.5-1.35.572-1.52-.123-.516-.525-.518-.841-.637-.347-.129-.617-.427-.427-.725.467-.728.275-1.53.412-2.293.157-.005.317-.006.476-.008zm12.014 5.966c-.526-.244-1.037-.549-1.587-.727-.925-.298-1.326-1.166-.628-1.811.476-.438.343-.48.021-.84-.377-.418-.315-.975-.054-1.457.229-.412.566-.42 1.023-.305.591.15 1.213-.092 1.723-.348.808-.405 1.558-.497 2.472-.444 1.617.093 2.367.7 2.29 2.343-.017.312-.247.762-.112.916 1.225 1.426-.208 1.145-.858 1.504-.789.441-1.483.803-2.423.441-.485-.186-.715.197-.677.689-.388.313-.785.33-1.19.039zm.398-.609c.034.014.068.032.102.031.013 0 .021-.055.031-.083-.034-.013-.068-.032-.102-.03-.011 0-.02.055-.031.082z"/>
  <path fill="#CD1A17" d="M-222.898-169.697c-.869-.129-1.554.582-2.415.537-.184-.01-.453.237-.37.387.515.93-.478 1.416-.598 2.158-.084.525-.331 1.068-.785.148-.146-.301-.406-.371-.694-.186-.124.082-.295.198-.312.316-.042.326.229.521.473.613.324.125.691.141 1.041.205.468.094 1.198-.184 1.059.77-.011.076.158.264.193.252 1.33-.445 2.035 1.271 3.337.948.753-.188.406.464.524.761-2.9-.045-5.229-1.438-7.346-3.234-.805-.683-.495-1.912.629-2.498 1.051-.549 2.177-.957 3.284-1.393.987-.389 2.042-.615 2.925-1.248.19.817-.785.876-.945 1.464z"/>
  <path fill="#E02E2D" d="M-243.298-195.355c-.071 1.099-.854 1.047-1.555.846-.746-.217-1.13-.021-1.576.602-.561.775-1.462 1.203-2.425 1.008-1.594-.326-1.58-.386-1.696 1.188-.983-.289-1.646-1.041-2.334-1.713-.451-.439-.323-.83.386-.964 3.041-.571 6.095-1.008 9.2-.967z"/>
  <path fill="#CD1A17" d="M-128.656-190.318c-1.15-.896-2.257-1.871-3.919-1.519-.342.073-.845-.08-1.113-.313-.488-.426-.778-.267-1.219.065-.745.563-1.046-.052-1.038-.622.012-.668.044-1.383.435-1.993 2.08.503 4.104 1.161 6.029 2.103 1.378.672 1.395.742.825 2.279zm-53.205 30.464c2.213.188 4.438-.021 6.654.215.611.064 1.25-.195 1.878-.202.429-.005 1.091-.271 1.234.358.153.68.392 1.77-.095 2.037-.933.521-1.653 1.582-2.913 1.451.436-.658 1.117-.955 1.793-1.297.896-.455 1.052-1.188.501-1.973-.17-.243-.353-.41-.688-.316-2.886.793-5.824.285-8.739.321-.787.01-1.654.423-2.377-.265.899-.27 1.88.15 2.752-.329zm-17.037-.716c.104-.605.508-.445.91-.387.947.139 1.83.404 2.773-.371.544-.445 1.545.15 2.156.438.958.451 1.94.269 2.875.551.358.107.827-.057.89.529-2.205.035-4.415.019-6.583-.391-1.007-.19-2.069.168-3.021-.369z"/>
  <path fill="#E02E2D" d="M-181.861-159.854c-.872.479-1.854.061-2.752.332-.12.012-.237.021-.356.031-.003-.119-.006-.24-.012-.357.93-.303 1.692-1.117 2.812-.865.116.025.466-.33.452-.486-.08-.896.546-1.262 1.134-1.688.271-.197.457-.703.859-.387.465.367.065 1.098-.103 1.143-1.205.33-1.304 1.578-2.034 2.277z"/>
  <path fill="#CD1A17" d="M-210.192-203.053c-.399.369-.133.887-.282 1.312-.645-1.58-1.291-3.157-1.925-4.741-.098-.244-.201-.683.245-.565 1.238.315 2.566.354 3.679 1.099l-.064.065c-.768-.109-1.553.036-2.31-.349-.562-.287-.77.043-.618.646.093.373.333.606.567.862.238.396.479.791.717 1.188l-.009.483zm-8.624 40.313c.479.002.957.004 1.438.004 1.038.441 2.079-.006 3.118.012 1.521-.01 3.021.395 4.552.242l.019.678c-1.354.176-2.669-.266-4.019-.267-1.569-.001-3.138-.126-4.707-.194-.238-.01-.479.004-.645-.221l.244-.254z"/>
  <path fill="#E02E2D" d="M-201.059-191.324c-.069-.521-.484-.383-.816-.459-.496-.113-1.381.049-.774-1 .232-.4-.205-.41-.466-.426-.464-.029-.692-.271-.502-.693.188-.412.596-.304.928-.17.131.053.209.227.312.344.53.627.882 1.457 1.965 1.357.4-.037.617.438.788.805-.503-.051-.912.435-1.435.242zm36.026 29.773c-.119.006-.271.062-.352.009-.469-.317-1.393.332-1.505-.515-.137-1.006.902-2.047 1.851-2.101-.728.871-.945 1.74.006 2.607z"/>
  <path fill="#CD1A17" d="M-211.369-199.109c-1.167.965-2.542.926-3.933.812.104-.111.213-.324.313-.32 1.238.04 2.408-.379 3.62-.492zm6.464-5.841c-.415.462-.806.026-1.183-.062-.796-.188-1.565-.5-2.406-.438l-.048-.435.064-.065c1.259.093 2.419.538 3.573 1z"/>
  <path fill="#E02E2D" d="M-212.335-169.441c.128.312.767.156.646.678-.064.285-.346.271-.573.27-.304-.004-.662.061-.756-.355-.089-.387.136-.569.493-.631a.183.183 0 01.19.038zm49.449 8.605c-.785.424-1.492.537-1.914-.482.652.104 1.332.095 1.914.482z"/>
  <path fill="#CD1A17" d="M-206.58-161.525c.765-.396 1.401-.221 1.93.436-.694.081-1.352-.001-1.93-.436z"/>
  <path fill="#E02E2D" d="M-209.691-161.805l-.019-.678c.568.041 1.284-.244 1.463.66l-.02.088c-.474-.022-.949-.047-1.424-.07z"/>
  <path fill="#CD1A17" d="M-136.024-194.875c-.842.873-1.187-.073-1.685-.46a3.051 3.051 0 011.685.46zm-65.754 33.816c.627.213 1.461-.436 1.921.466-.647.013-1.314.173-1.922-.214l.001-.252zm-.156-42.996c-.809-.094-1.676-.012-2.256-.77.827.037 1.606.214 2.256.77z"/>
  <path fill="#E02E2D" d="M-198.869-193.445l-1.125.131c.002-.834.514-.887 1.085-.856.015.24.027.482.04.725z"/>
  <path fill="#CD1A17" d="M-176.105-155.3c-.215.68.655.649.741 1.134-.426.042-.916.154-1.148-.311-.18-.353-.002-.683.407-.823zm-8.876-4.548c.006.117.009.238.012.357-.68.34-1.276-.105-1.91-.193.606-.351 1.267-.082 1.898-.164zm-37.736-15.33c.699-.023 1.312.09 1.503.906-.654-.046-1.059-.509-1.503-.906zm18.54 14.121c.532-.271 1.064-.555 1.442.216-.491.015-1.005.157-1.442-.216z"/>
  <path fill="#E02E2D" d="M-218.816-162.74l-.243.254-.471-.045-.02-.908c.534-.069.782.16.734.699z"/>
  <path fill="#CD1A17" d="M-220.55-173.986c.955.199.438.863.431 1.365-.142-.455-.287-.91-.431-1.365zm1 10.547l.02.908c-.192.064-.37.062-.495-.134.024-.34-.046-.739.475-.774zm9.119-37.68c.445.299.897.598.041.952a99.552 99.552 0 01-.041-.952z"/>
  <path fill="#E02E2D" d="M-161.432-160.629c-.331.419-.587.411-.748-.133.267-.063.53-.092.748.133z"/>
  <path fill="#CD1A17" d="M-220.514-171.884c.021.508-.321.526-.688.515.155-.27.331-.512.688-.515zm10.021-27.942c.086.428-.082.617-.519.557a.962.962 0 01.519-.557z"/>
  <path fill="#E02E2D" d="M-163.138-153.176c.021-.151.044-.328.233-.334.193-.004.223.172.246.322l-.479.012z"/>
  <path fill="#CD1A17" d="M-175.135-155.982c-.146.299-.379.461-.718.455.116-.348.355-.5.718-.455zm-32.405-5.818c.01.062.016.122.018.186-.265.064-.521.078-.742-.118l.02-.089.704.021zm19.452 2.145c.223-.249.455-.251.695-.028l-.695.028z"/>
  <path fill="#E02E2D" d="M-152.572-194.443c.17-.225.326-.205.473.025-.159-.007-.317-.018-.473-.025z"/>
  <path fill="#CD1A17" d="M-188.887-159.803l.287.062-.287-.062z"/>
  <path fill="#E02E2D" d="M-164.796-161.303l-.251-.254.251.254z"/>
  <path fill="#CD1A17" d="M-215.879-198.283l-.348.006c.113-.162.229-.164.348-.006zm-4.857 35.553c.083-.168.162-.16.236.01-.078-.005-.157-.007-.236-.01zm10.289-38.693c.004.101.011.2.016.301-.163-.093-.134-.196-.016-.301z"/>
  <path fill="#E02E2D" d="M149.135-153.018c-.41.055-.82.107-1.23.161-.095-.065-.186-.18-.287-.188-1.914-.168-3.811.16-5.717.213-.438.012-.466.342-.481.67-1.257.43-2.564.413-3.866.55-4.258.447-8.495-.073-12.74-.058-.673.003-1.354-.088-2.018-.203-.771-.137-.966-.523-.344-1.119.6-.572 1.137-1.24 1.822-1.677.725-.464.633-1.063.532-1.669-.119-.722-.766-.59-1.262-.57-4.263.156-8.527.141-12.792.229-2.979.062-5.953.419-8.93.646-.138-.568-.432-.955-1.082-.818-1.171.248-2.304.271-3.364-.4-.17-.107-.269.021-.339.188-.151.359-.327.711-.492 1.066-.157.002-.315.006-.477.01-.134-.428-.099-.973-.866-.786-.524.128-1.137-.054-1.641.112-.994.328-2.115.204-3.016.853-.157-.007-.317-.015-.479-.021-.334-.602-.754-.472-1.197-.141-2.052.096-3.7-1.113-5.52-1.757-.533-.188-.485-.827-.192-1.351.791-1.414 2.127-2.059 3.536-2.678 1.378-.605 2.654-1.432 3.173-2.973.217-.646.166-1.146-.564-1.669-1.591-1.134-3.474-1.396-5.229-1.915-3.727-1.107-7.382-2.429-11.108-3.525-3.043-.894-6.062-1.854-9.144-2.633-3.661-.924-7.188-2.229-10.241-4.555a9.166 9.166 0 01-1.225-1.122c-.588-.649-.632-1.312.223-1.763 2.141-1.131 4.216-2.367 6.604-2.996 2.591-.686 5.119-1.607 7.697-2.339 1.792-.509 3.549-1.188 5.423-1.38.458.428.691.023.959-.26.261-.314.611-.254.956-.229.337.388.434.146.492-.189.497-.344 1.075-.317 1.641-.357 1.007 1.01 1.044 1.398.161 2.479-.243.297-.234.682-.394.953-.516.891.475 1.686.029 2.573-.599 1.192-.108 2.244 1.169 2.72.187.068.404.075.472.299.286.949 1.183.842 1.674.609 1.271-.602 2.571-.535 3.881-.523 1.509.012 2.989-.471 4.523-.164.533.105.799.242.788.783l.01-.012c-.303.023-.654.021-.271.457-.091.314-.184.634-.272.951-.91.376-1.755.365-2.731.018-.514-.182-1.176.152-1.35-.706-.018-.089-.284-.2-.417-.183-1.664.236-3.382-.023-5.001.311-1.543.32-3.033.926-4.632 1.053-.296.023-.602.104-.615.44-.017.423.335.492.67.505.319.014.693.107.95-.021.978-.489 1.978-.425 3.003-.31.637.069 1.481-.082 1.878.135 1.108.604 1.025 1.604-.067 2.507 1.082.092 1.871.573 3.125.026 1.479-.646 3.184-1.062 4.829-1.435.253-.06.584-.327.726.03.136.347-.225.438-.503.509-.183.044-.45.015-.426.296.011.124.183.344.265.337 1.167-.104 1.479 1.363 2.583 1.388.229.006.377.284.328.562-.044.25-.252.295-.453.3-.327.007-.663.362-.988-.048-.174-.222-.431-.195-.644-.032a.648.648 0 00-.221.76c.272.746.986 1.168 1.619 1.281.645.116 1.533.6 2.072-.158.486-.685.989-.63 1.66-.455.459.119 1.036.375 1.335-.324.432-1.006 1.08-.812 1.82-.348-.174.434-.883.615-.491 1.223.302.47.757.531 1.26.513.439-.019.879.004 1.319-.004.34-.009.643.079.849.354.085.112.172.312.126.411-.044.099-.294.203-.39.16-1.061-.469-2.218.147-3.271-.315-.229-.102-.515-.192-.674 0-.375.455-.604.549-1.09.045-.404-.42-.937-.015-1.229.349-.341.418-.017.712.366.942.477.289.892.687 1.497.69 1.503.015 2.987.351 4.497.247.487-.033.899.182 1.357.415-.594.414-2 .636-2.849.502-.276-.044-.7-.423-.795.043-.095.474.428.481.777.468.933-.039 1.58.194 1.502 1.316-.021.304.204.525.517.57.706.104 1.413.218 2.126.269.464.033 1.064.111.812-.719-.068-.228-.007-.41.25-.425.146-.01.428.072.427.104-.046 1.354.521 2.536 1.031 3.733.014.033-.138.121-.136.181.033 1.021-1.205 1.796-.554 2.943.103.18-.108.351-.275.477-.266.2-.557.478-.229.774.336.305.618.062.892-.247.438-.505.928-1.063 1.673-.979.955.111 1.868.378 2.492-.73.202-.357 1.084-.33.938-.909-.162-.645-.967-.305-1.445-.544-.195-.099-.595.207-.787.106-.726-.369-.004-1.314-.643-1.785-.134-.101-.16-.377.114-.473.069-.023.177-.029.229.008.822.582 1.885.271 2.52.049 1.383-.487 1.947-.014 2.479 1.087.306.627 1.7.993 2.328.669.43-.223.474-.668.073-.821-.979-.379-.688-1.004-.464-1.657a62.322 62.322 0 0114.148-.562c.146 1.095.929.438 1.398.457 1.525.055 3.037.645 4.594.047.393-.15.986.082 1.293.465.423.523-.401.605-.42.867-.038.572-.917 1.219.06 1.753l.028.024c.092.062.183.125.271.188l.702.252c.019.238.083.441.375.443.228.001.309-.161.359-.35l.439.016c.238.98.865.625 1.447.42l1.937.012c.07.107.149.119.237.021.168-.011.336-.02.504-.027 2.073.602 4.123-.154 6.188-.119.262.004.263-.35.288-.582 1.353-.193 2.708-.056 4.062-.076.398.355.801.361 1.201 0l1.436-.012c.727.273 1.175.548 1.325 1.55.136.901-.139 2.167.981 2.8.022.316.048.637.07.951-.236.682-1.195.188-1.428.879l-.471.062c-1.035-.428-2.114-.33-3.135-.062-.552.146-1.348-.354-1.67.521-.312.013-.628.023-.939.039a.306.306 0 00-.209.063zm-14.347-2.138c-.263.094-.547.241-.729-.102-.098-.177-.105-.422.062-.557 1.081-.855.135-1.863.192-2.793.017-.264-.197-.653-.6-.635-.327.015-.628.199-.734.528-.169.517-.536.851-.904 1.218-.332.332-.503.741-.39 1.301.165.812.303 1.715.271 2.472-.046 1.207.403.747.98.642 1.092-.203 1.65-1.571 2.972-1.307.206.041.271-.414.012-.535-.343-.159-.703-.405-1.132-.232zm-66.35-21.694c.922 0 1.625.007 2.328-.003.323-.004.693-.046.716-.449.021-.412-.316-.632-.674-.709-.943-.205-1.679.133-2.37 1.161zm30.801 12.541c-.543-.42-1.175-.166-1.375-.77-.084-.255-.25-.556-.608-.409-.274.111-.378.398-.415.68-.048.36.241.497.5.571.565.165 1.139.181 1.898-.072zm-6.992-4.646c.289-.434.3-.766.05-1.061-.094-.109-.35-.117-.399.045-.115.352.055.656.349 1.016zm-19.549-8.438c-.066-.026-.146-.095-.195-.075-.048.021-.062.123-.091.188.066.028.147.095.194.075.048-.017.062-.12.092-.188zm29.764 20.646c-.065-.028-.146-.096-.195-.074-.048.018-.062.123-.093.188.067.028.148.096.196.074.048-.018.064-.122.092-.188zm9.217-39.553c2.536-.082 4.936.81 7.421 1.078 1.739.188 3.436.739 5.21.656 1.521-.07 1.848-.393 1.789-1.876-.028-.715-.191-1.424-.22-2.14-.023-.659.077-1.125 1.031-.944 2.896.543 5.709 1.392 8.562 2.103 1.568.392 3.175.728 4.779.991 2.852.472 5.408 1.878 8.223 2.482 1.779.384 3.508 1.021 5.258 1.547 1.391.418 1.569.776 1.316 2.174a24.352 24.352 0 00-.38 4.757c.015.616.384 1.405-.248 1.782-.676.405-1.512.024-2.157-.271-1.519-.696-3.021-1.403-4.656-1.776-.783-.181-1.335-.806-2.127-1.037-2.626-.772-5.258-1.496-7.95-2.008-.44-.083-.773.008-1.13.19-.095-1.562-2.287-.871-2.492-2.316-2.239.227-4.137-1.079-6.344-1.354.181.637.145 1.258-.712 1.418.384.662 1.825.67 1.366 1.284-.768 1.028.658 1.037.445 1.636-.079.222-.261.416-.298.642-.109.647-.082 1.332-.269 1.95-.354 1.176.861 1.578 1.088 2.451-3.163.17-6.264-.446-9.383-.771-3.596-.371-7.122-1.197-10.708-1.656-2.121-.271-4.236-.662-6.364-.878-1.913-.194-2.7.828-2.422 2.794.078.553.401 1.187-.276 1.624a1.675 1.675 0 00-.129-.124c.021-.402-.065-.717-.564-.717-.295 0-.528-.066-.617-.422-.141-.545.709-2.701 1.233-2.902.584-.223.961-.662 1.407-1.055.654-.573.581-.924-.141-1.338-.896-.516-1.673-1.203-1.535-2.354.172-1.453-.379-2.973.16-4.339.515-1.303-.112-1.827-1.021-2.396-.112-.069-.082-.366-.118-.561.187-.098.241-.263.238-.459.326-.062.646-.043.952.096.062.207.229.271.413.371 1.618.873 3.379.701 5.11.731.063.741-.479.851-.932.673-1.058-.416-1.82.439-2.786.393.112.451.405.315.612.365.383.09.929.125.868.617-.062.502-.559.609-1.038.486-.296-.076-.704-.307-.724.217-.015.459.455.346.748.348.622.004 1.203.092 1.047.901-.154.8-.727.349-1.146.272-.29-.051-.629-.326-.714.236-.122.807 1.372 2.145 2.123 1.875.232-.085.469-.227.63.029.092.145.132.43.049.559-.293.457-.388.875-.283 1.443.109.598-1.226.41-.896 1.119.259.562 1.042.104 1.617.294.79.258 1.591.748 2.585.542 1.121-.232 2.25-.51 3.475.096.749.37 1.486 1.288 2.605.754.281-.135.559-.488.967-.344.304.105.64.27.762-.216.081-.325-.123-.468-.39-.64-.527-.338-.712-.766-.043-1.188.191-.123.288-.373.13-.509-.664-.569-.02-.956.218-1.304.513-.754.229-.902-.52-1.062-.84-.179-1.649.058-2.462-.037-.291-.032-.85-.034-.84-.479.012-.469.507-.375.854-.424.829-.113 1.653-.136 2.467.075.312.08.494.106.619-.284.419-1.306-.229-2.315-1.562-2.724-.645-.185-1.718.039-1.78-1.146zm17.958 3.494c1.428 1.194 2.974.903 4.411 1.065.59.065.779-.234.311-.677-.361-.338-.497-.817-.823-1.146-.224-.226-.807-.203-.615-.69.202-.513.747-.315 1.17-.342.256-.017.506.326.789-.029-.233-.307-.101-1.174-.466-.993-1.341.655-1.349-.63-1.88-1.119-.36-.331-.654-.735-.979-1.106-.708.646-1.747-.431-2.4.45-.409.554-.948.808-1.616.907-.587.089-.713.419-.55 1.029.229.854.653 1.301 1.555 1.345.63.028 1.269.133 1.877.293.397.104.995.258.85.812-.163.617-.652.082-.995.104-.156.007-.304.044-.639.097zm14.108 4.767c.733.056 1.024-.271 1.135-.948.141-.847-.491-.485-.823-.59-.479-.15-.967-.354-1.394-.556-.857-.401-2.035-.381-2.577-1.047-.812-1-1.905-.832-2.867-1.146-.433-.143-.997.035-1.108.756-.096.613-.264 1.354.454 1.486 1.159.223 2.059 1.604 3.454.779.184-.105.437.076.661.164 1.009.399 2.041.74 3.065 1.102z"/>
  <path fill="#E02E2D" d="M114.072-163.054c-.224.653-.516 1.278.464 1.657.398.153.354.601-.073.821-.628.324-2.022-.042-2.326-.669-.532-1.101-1.099-1.574-2.479-1.087-.635.224-1.696.533-2.519-.049-.056-.037-.161-.031-.23-.008-.273.096-.248.372-.114.473.639.471-.083 1.416.643 1.785.191.101.591-.205.787-.106.479.239 1.283-.101 1.445.544.146.579-.733.552-.938.909-.624 1.107-1.537.844-2.492.73-.745-.087-1.232.474-1.673.979-.271.311-.555.552-.89.247-.329-.299-.038-.574.227-.774.167-.126.378-.297.276-.477-.652-1.147.586-1.925.553-2.943-.002-.062.147-.146.136-.181-.513-1.197-1.077-2.379-1.031-3.733.001-.032-.278-.114-.427-.104-.257.015-.317.197-.25.425.252.83-.351.752-.812.719-.712-.051-1.419-.162-2.126-.269-.312-.045-.537-.269-.518-.57.078-1.122-.567-1.355-1.502-1.316-.351.016-.872.006-.776-.468.095-.466.518-.087.795-.043.848.134 2.254-.088 2.848-.502-.458-.233-.87-.448-1.357-.415-1.51.104-2.993-.232-4.497-.247-.605-.006-1.021-.401-1.495-.69-.385-.23-.707-.524-.368-.942.293-.36.824-.769 1.229-.349.484.504.715.41 1.09-.045.159-.192.445-.102.676 0 1.053.465 2.211-.151 3.271.315.096.043.346-.062.39-.16.047-.1-.041-.299-.126-.411-.206-.277-.509-.363-.849-.354-.438.008-.88-.015-1.319.004-.503.021-.958-.043-1.26-.513-.392-.605.317-.789.491-1.223-.74-.464-1.389-.658-1.82.348-.299.699-.876.443-1.335.324-.671-.175-1.174-.229-1.66.455-.539.758-1.43.274-2.07.158-.635-.113-1.349-.535-1.621-1.281a.647.647 0 01.221-.76c.213-.163.47-.188.645.032.324.41.66.055.987.048.201-.005.409-.05.453-.3.049-.274-.102-.556-.328-.562-1.104-.022-1.416-1.492-2.583-1.388-.083.007-.254-.213-.265-.337-.024-.281.243-.252.426-.296.278-.067.639-.162.503-.509-.142-.357-.473-.09-.726-.03-1.646.371-3.351.788-4.829 1.435-1.254.547-2.042.063-3.125-.026 1.095-.901 1.178-1.903.067-2.507-.396-.217-1.242-.063-1.878-.135-1.026-.115-2.026-.182-3.003.31-.256.129-.63.034-.949.021-.334-.013-.688-.082-.671-.505.016-.337.319-.417.615-.44 1.601-.127 3.088-.73 4.632-1.053 1.62-.334 3.337-.072 5.001-.311.136-.02.399.094.417.183.176.858.837.524 1.35.706.979.35 1.822.358 2.731-.02.058 1.133.86 1.775 1.644 2.381 2.559 1.975 5.604 2.918 8.586 4.014 3.873 1.422 7.972 2.1 11.8 3.656.242.098.609.018.555.445-.045.342-.348.445-.611.482-.997.141-1.923.514-2.871.815-.794.253-1.149.829-1.264 1.583-.116.785.594.99 1.071 1.264.99.562 2.109.695 3.234.73 1.259.043 2.529.075 3.797.11zm-25.416-16.875c.011-.541-.255-.679-.788-.783-1.534-.308-3.016.177-4.523.164-1.31-.013-2.609-.078-3.881.522-.491.231-1.388.34-1.674-.61-.065-.223-.285-.229-.472-.298-1.277-.476-1.767-1.524-1.169-2.72.444-.889-.545-1.684-.029-2.573.158-.271.149-.655.394-.952.883-1.08.846-1.472-.161-2.479a51.215 51.215 0 019.381-1.812c1.123-.111 2.072-.464 2.892-1.213.837 1.104 2.132 1.893 2.276 3.477.026.301.365.645.647.832.477.312 1.026.673 1.562.068.483-.548.525-1.145.031-1.695-.996-1.11-2.367-1.866-2.993-3.351-.169-.399-.738-.709-1.286-.776-.477-.676.173-1.974-1.191-2.155a.168.168 0 01-.05-.146c.031-1.4-.139-1.58-1.662-1.75-.103-.15-.205-.302-.307-.453.394-.139.42-.838 1.005-.674 1.049.293 2.119.062 3.176.146.358.983 1.062 1.698 1.833 2.37.381.33 1.126.631.996 1.092-.378 1.339-.029 2.297.971 3.199.198.181.212.609.594.871 1.205.828 1.406 1.629.485 2.832-1.396 1.824-1.224 3.795-.882 5.824.077.455-.104.562-.476.616-.287.041-.61.155-.503.505.047.152.448.355.584.295.722-.324 1.446-.041 2.166-.1.418-.033.687-.248.691-.672.016-.863.474-.842 1.066-.648.081.454-.646.328-.445.758.158.344.512.332.835.332.717 0 1.437-.004 2.154-.006.045.039.088.08.129.124-.558.679-1.354.558-2.092.613-2.018.151-4.032.308-6.05.435-1.128.07-2.13.629-3.234.791zm-8.031-8.164c-.459-.096-.884.045-1.271.241-.747.38.451 1.757-.922 1.853-.001 0 .002.146.015.22.006.037.034.071.061.103.689.703.524 1.627.49 2.44-.051 1.198.494 1.454 1.521 1.356 1.207-.112 2.405-.388 3.634-.088 1.385.34 2.73-.586 4.137-.174.232.068.396-.167.587-.301.639-.439.606-1.227 1.02-1.755.814-1.054.692-1.812-.501-2.498-.396-.228-.942-.522-.887-.888.159-1.016-.493-.748-1-.786-2.308-.18-4.582.425-6.884.277zm31.054-8.207c.062 1.187 1.136.961 1.785 1.157 1.337.406 1.981 1.418 1.562 2.724-.125.393-.308.365-.619.285-.812-.211-1.638-.188-2.467-.076-.346.05-.842-.045-.854.425-.01.444.55.446.841.479.812.094 1.623-.143 2.461.036.748.158 1.03.31.52 1.062-.235.348-.882.732-.218 1.304.158.136.062.386-.13.509-.669.424-.484.852.043 1.188.267.174.471.312.39.64-.122.483-.458.323-.762.216-.408-.146-.686.209-.967.344-1.119.534-1.856-.384-2.605-.754-1.226-.604-2.354-.328-3.475-.096-.994.206-1.795-.284-2.585-.542-.575-.188-1.358.269-1.617-.294-.327-.709 1.008-.521.896-1.119-.104-.568-.01-.986.283-1.443.083-.129.043-.414-.049-.559-.161-.256-.396-.113-.63-.029-.751.27-2.245-1.066-2.123-1.875.085-.562.424-.287.714-.236.42.074.99.525 1.146-.272.155-.812-.426-.897-1.047-.901-.294-.002-.764.111-.747-.348.018-.521.426-.293.722-.217.479.123.976.016 1.038-.486.061-.492-.485-.527-.868-.617-.207-.049-.5.086-.612-.365.966.049 1.729-.809 2.786-.393.45.178.995.068.933-.673l.99-.049c1.164-.021 2.25.337 3.334.694.513 1.003 1.247.462 1.931.281zm17.508 13.42c-.227-.873-1.442-1.275-1.088-2.451.187-.618.157-1.303.269-1.95.037-.226.219-.421.298-.642.213-.599-1.213-.605-.445-1.636.459-.614-.982-.623-1.366-1.284.854-.16.893-.781.712-1.418 2.208.272 4.104 1.577 6.344 1.354.205 1.445 2.397.755 2.492 2.316l.003-.006c-.729.331-1.513.608-.898 1.686.234.41-.139.435-.422.466-.188.021-.434-.029-.495.219-.066.279.151.498.352.56.991.301.733 1.08.699 1.756-.023.432-.138.854-.208 1.283l-.729.015c-1.188-.339-2.38-.88-3.577-.021l-.522-.031c-.112-.043-.226-.086-.336-.131a88.656 88.656 0 00-1.083-.085z"/>
  <path fill="#E02E2D" d="M88.862-194.13c.548.067 1.117.377 1.286.776.626 1.481 1.997 2.238 2.993 3.351.494.553.452 1.147-.031 1.694-.533.604-1.085.244-1.562-.067-.282-.188-.621-.531-.647-.832-.146-1.584-1.439-2.373-2.276-3.477a3.643 3.643 0 00-.068-.218c.309-.176.334-.353.001-.526.021-.152.048-.306.069-.457l.235-.244z"/>
  <path fill="#CD1A17" d="M135.145-160.028c-.977-.534-.098-1.181-.06-1.753.019-.262.844-.344.42-.867-.307-.383-.9-.615-1.293-.465-1.557.598-3.066.008-4.594-.047-.472-.02-1.254.638-1.397-.457 2.63.035 5.266-.182 7.888.178.352.049.798 0 .867.453.062.396-.305.68-.603.818-.93.438-1.147 1.239-1.228 2.14z"/>
  <path fill="#E02E2D" d="M135.43-182.63c.07-.429.185-.854.208-1.283.033-.676.292-1.454-.699-1.756-.198-.062-.418-.278-.352-.56.062-.248.309-.196.495-.219.283-.031.656-.056.422-.466-.612-1.075.17-1.354.898-1.686-.564 1.52-.139 3.04.057 4.542.121.918-.123 1.359-1.029 1.428z"/>
  <path fill="#CD1A17" d="M89.832-199.162c-1.057-.086-2.127.146-3.176-.146-.584-.162-.611.536-1.005.676-.369-.098-.599-.383-.814-.66-.136-.174-.308-.396-.197-.644.117-.272.399-.229.625-.206 1.845.186 3.688.377 5.529.588.12.014.221.207.327.315l-.336.093c-.317-.006-.635-.012-.953-.016z"/>
  <path fill="#E02E2D" d="M96.547-155.997c.165-.355.341-.707.492-1.066.07-.166.169-.297.339-.188 1.062.674 2.193.648 3.364.4.65-.137.944.25 1.082.818l-5.277.036z"/>
  <path fill="#CD1A17" d="M98.948-198.429c.003.195-.054.36-.238.459l-.479.002c-.643.125-1.277-.91-1.922-.011-1.354-.271-2.649-.879-4.08-.707l.006-.487c2.27-.056 4.503.244 6.713.744z"/>
  <path fill="#E02E2D" d="M90.551-155.81c.896-.646 2.02-.522 3.014-.853.504-.166 1.114.016 1.641-.112.77-.187.732.358.866.786-1.845-.063-3.671.45-5.521.179z"/>
  <path fill="#CD1A17" d="M141.418-152.162c.018-.328.044-.658.481-.67 1.906-.053 3.803-.382 5.717-.213.103.009.191.121.287.188-.88.487-1.872.231-2.806.398-1.204.217-2.45.21-3.679.297zm6.506-7.571c-.024.231-.025.586-.286.582-2.065-.035-4.115.721-6.188.119 2.164-.174 4.275-.852 6.474-.701zm-41.508-37.547c-.33.017-.66.03-.989.049-1.733-.03-3.494.142-5.112-.731-.187-.1-.351-.164-.413-.371 2.174.33 4.402.337 6.514 1.053zm50.515 41.809c-1.121-.633-.849-1.896-.982-2.8-.15-1.002-.601-1.273-1.325-1.55 1.346-.408 1.438-.32 1.731.965.256 1.12.471 2.241.576 3.385zm-6.63 2.352c.32-.875 1.116-.377 1.67-.521 1.019-.268 2.098-.363 3.133.062-1.585.333-3.199.342-4.803.459z"/>
  <path fill="#E02E2D" d="M131.124-182.636c1.197-.858 2.389-.318 3.577.021-1.195.461-2.383-.142-3.577-.021z"/>
  <path fill="#CD1A17" d="M85.958-198.182c1.522.171 1.692.351 1.662 1.75a8.003 8.003 0 01-1.662-1.75zm2.904 4.052l-.235.244c-.316-.802-.637-1.602-.956-2.4 1.363.182.715 1.48 1.191 2.156zm66.711 40.489c.231-.688 1.19-.199 1.428-.879.451.628.278.953-.48.959-.317.002-.631-.051-.948-.08z"/>
  <path fill="#E02E2D" d="M111.68-196.298c-.686.181-1.419.722-1.93-.285.644.099 1.339-.165 1.93.285z"/>
  <path fill="#CD1A17" d="M138.771-159.035c-.582.205-1.208.562-1.447-.422.511.043 1.036.036 1.447.422z"/>
  <path fill="#E02E2D" d="M92.233-199.173l-.006.487c-.479-.155-1.181.371-1.441-.461l.336-.093c.37.024.741.045 1.111.067zm-3.36 43.202c.443-.331.863-.461 1.197.141-.414.09-.828.168-1.197-.141z"/>
  <path fill="#CD1A17" d="M153.187-159.809c-.4.361-.801.355-1.201-.001.402-.35.801-.251 1.201.001zm-16.302.341c-.055.188-.136.35-.361.349-.292-.002-.356-.205-.375-.443.245.03.49.062.736.094z"/>
  <path fill="#E02E2D" d="M73.263-188.88c-.269.282-.501.687-.959.258.257-.318.629-.211.959-.258zm15.133 9.395c-.386-.437-.032-.433.271-.457-.019.196-.058.377-.271.457z"/>
  <path fill="#CD1A17" d="M88.556-193.429c.333.176.308.353-.001.526-.212-.175-.22-.35.001-.526z"/>
  <path fill="#E02E2D" d="M74.712-189.3c-.06.338-.154.576-.492.188.11-.197.285-.235.492-.188z"/>
  <path fill="#CD1A17" d="M140.945-159.002c-.088.1-.167.088-.237-.021l.237.021z"/>
  <path fill="#E02E2D" d="M130.265-182.798c.11.045.224.088.336.131-.113-.043-.226-.086-.336-.131z"/>
  <path fill="#CD1A17" d="M149.135-153.018a.305.305 0 01.225-.062c-.057.087-.119.158-.225.062zm-13.689-6.799c-.09-.062-.181-.123-.271-.187.091.064.181.128.271.187z"/>
  <path fill="#E02E2D" d="M-104.492-177.602c.654-.68 1.118-.795 1.883-.449-.606.298-1.052.432-1.883.449zm.493 1.686c-.17-.021-.303-.093-.312-.279-.009-.17.068-.342.25-.282.113.036.2.221.254.354.062.153-.074.186-.192.207zm91.141 27.016c.32-1.004.912-1.266 1.882-1.342 2.084-.164 4.195-.205 6.229-.842.594-.186 1.31.324 1.893-.22.071.079.185.147.204.237.04.178-.088.273-.236.359-.591.342-1.351.124-1.898.611-1.602 1.417-3.551 1.038-5.408.964-.881-.031-1.691.305-2.666.233zm8.332-44.965c-.149-.013-.299-.022-.447-.037a32.961 32.961 0 01-.021-.459c.313-.017.647.062.931-.144.189-.137.416-.278.396-.553-.023-.272-.28-.228-.463-.272-.329-.085-.661-.216-.486-.636.144-.347.46-.614.854-.53 1.455.312 2.936.567 4.332 1.051.468.162 1.14.78.579 1.608-.302.446.018 1.146-.562 1.509-.067-.025-.193-.045-.197-.076-.203-1.801-2.003-1.584-3.013-2.354-.286-.22-.615.144-.77.41-.271.47-.686.485-1.133.483z"/>
  <path fill="#E02E2D" d="M-2.745-193.814c.03-.066.045-.172.094-.19.047-.021.13.05.196.078-.029.065-.044.172-.092.188-.049.018-.132-.047-.198-.076zm-64.206 30.658c-.132.088-.21.181-.297.188-.157.016-.312-.062-.256-.25.019-.066.175-.132.267-.129.081.002.159.101.286.191zm-5.546-21.742l.199.087c-.028.063-.042.169-.092.188-.048.018-.128-.048-.193-.076.027-.067.056-.133.086-.199zm67.658-.715c.036.984-1.077 1.672-2.072 1.498-1.316-.229-2.643-.461-3.966-.604-.995-.108-1.551-.694-1.923-1.396-.385-.725.285-1.431.559-2.09.134-.324.78-.318 1.294-.297 1.209.055 2.337.613 3.591.401 1.712-.288 2.363.619 2.517 2.488zM-207.54-161.8a55.613 55.613 0 00-.707-.021c-.179-.903-.895-.618-1.463-.659-1.53.149-3.03-.254-4.552-.242.016-.327-.281-.457-.428-.685-.262-.409-.914-.821.219-1.104.778-.194.515-1.178.637-1.783.158-.784.354-.936 1.16-.814.757.108 1.605.342 2.349-.418.395-.402.529.372.785.6.196.172.244.562.587.509.438-.065.383-.379.321-.731-.078-.441.342-.521.624-.558.497-.062.472.276.372.63-.03.104-.062.258-.008.331.667.945.835 2.031.873 3.133.026.8-.692 1.141-.769 1.812zm-13.201-29.326c-.925.054-1.458-.297-2.092-1.011-.532-.602-1.019-1.926-2.422-1.248-.294.142-.698-.461-.918-.801-.219-.336-.08-.768.143-1.127.261-.418.568-.117.846-.059 1.198.268 2.173-.488 3.235-.768 1.646-.434 3.955.035 4.909 1.379.521.729.354 1.705-.279 2.121-1.026.679-2.179 1.247-3.422 1.514zm6.724-3.526c-.198-.104-.66.331-.605-.146.109-.957.621-1.781 1.484-2.221.841-.427 2.029-.141 2.547-1.26.022-.052.212-.072.303-.043 1.354.44 2.479 2.789 2.08 4.334-.018.07-.15.143-.138.186.549 1.896-.866 1.793-1.934 1.73-.85-.049-1.951.809-2.583-.502-.03-.064-.3-.062-.437-.021-.506.15-.933.182-1.185-.42-.229-.547-.222-.984.354-1.307.075-.041.076-.216.111-.328.285-.043.688.077.649-.433-.006-.081-.139-.214-.221-.22-.503-.039-.383.364-.425.651zm-17.41 2.097c.321-.191.717.566.98-.053.071-.166.104-.422.024-.565-.247-.455-.707-.285-1.071-.229-.342.053-.664.245-.975.369-.396-.211.035-.558-.155-.754-1.264-1.307-.081-1.072.688-1.104 1.007-.041 2.016-.068 3.021-.127.19-.013.543-.125.536-.002-.051.86.416 1.711.128 2.545-.182.528-.685.735-1.27.632-.146-.026-.331-.069-.439-.007-.917.545-.991.515-1.467-.705zm7.303 8.676c-.045.555-.351.486-.583.307-1.491-1.152-3.602-.607-5.06-1.865-.25-.217-.604-.021-.914.06-.36.095-.802.308-.739-.459.05-.627-.414-.181-.65-.192-.229-.014-.538.076-.561-.258-.021-.275.147-.674.426-.611.915.203 2.041-.898 2.806.525.183.336.875.616 1.474.65 1.316.076 2.281 1.029 3.452 1.479.155.059.258.266.349.364zm21.441-18.092c-.678.543-1.402.234-1.979-.111-1.021-.615-2.403-.693-3.03-1.93-.099-.194-.381-.371-.131-.607.189-.18.482-.152.669-.016.779.568 1.68.553 2.578.688 1.027.153 1.619.97 1.893 1.976zm-14.972 27.189c-.002.427-.193.563-.444.357-.494-.403-1.058-.296-1.604-.304-.381-.004-.629-.129-.911-.426-.456-.48-.75-1.244-1.674-1.135-.258.031-.608-.327-.517-.686.103-.402.43-.385.769-.213 1.342.684 2.694 1.348 4.033 2.035.159.088.262.278.348.372zm11.32-25.866c-.454 1.336-1.116.234-1.646.104-.595-.147-.708-.722-.387-1.14.602-.773.334-1.235-.412-1.574-.372-.168-.538-.361-.295-.709.262-.377.535-.186.792.053.536.49.885 1.184.7 1.807-.378 1.277.331 1.4 1.243 1.455l.005.004zm-2.206-5.237l.048.435c-.603.015-1.409-.562-1.637.588-.02.093-.501.093-.771.138-.235-.256-.477-.488-.567-.861-.15-.604.056-.934.618-.646.756.383 1.542.235 2.309.346z"/>
  <path fill="#E02E2D" d="M-206.341-200.654c.001-.078-.001-.156.003-.234.016-.35-.033-.744.428-.848.18-.039.251.143.276.307.082.543-.125.828-.702.781l-.005-.006zm15.967.528c.51-.022.813.079.95.462.012.033-.08.145-.134.152-.423.071-.643-.168-.816-.614zm-14.614 6.13c-.028.066-.044.17-.093.188-.047.021-.129-.047-.196-.075.029-.067.044-.171.094-.19.047-.019.129.048.195.077zm-5.204-9.057l.01-.484c.176.04.422.037.359.303-.019.082-.24.12-.369.181zm47.203 43.268c-.066.026-.15.09-.199.068-.047-.022-.058-.125-.084-.192.068-.026.151-.089.198-.067.048.019.06.122.085.191zm3.448-.307l.057-.1-.054.104-.003-.004zm16.494 4.467c.011-.027.021-.082.031-.082.031-.002.065.02.102.029-.011.029-.021.084-.031.084-.033.002-.067-.017-.102-.031zm277.835.467c.428-.172.789.073 1.135.234.26.121.194.576-.012.535-1.317-.267-1.88 1.104-2.972 1.307-.577.105-1.026.565-.98-.642.029-.757-.106-1.656-.271-2.472-.113-.559.058-.969.39-1.301.368-.367.735-.701.904-1.217.106-.33.407-.517.736-.529.398-.021.612.371.598.635-.06.93.889 1.938-.192 2.793-.169.135-.159.38-.062.558.179.343.464.194.726.099zm-66.35-21.692c.69-1.028 1.427-1.366 2.37-1.161.356.077.694.297.674.709-.021.403-.393.445-.716.449-.703.01-1.406.003-2.328.003zm30.801 12.541c-.759.253-1.333.236-1.898.072-.259-.074-.548-.211-.5-.571.037-.279.141-.566.415-.68.358-.146.523.154.608.408.2.605.832.351 1.375.771zm-6.992-4.646c-.294-.358-.464-.663-.352-1.016.052-.162.308-.154.399-.045.253.296.242.628-.047 1.061zm-19.549-8.437c-.029.066-.044.17-.092.188-.047.021-.128-.047-.194-.074.029-.066.043-.17.091-.189.048-.02.128.048.195.075zm29.764 20.645c-.027.065-.044.171-.092.188-.048.021-.129-.046-.196-.074.029-.064.045-.172.093-.188.048-.021.129.045.195.074zm-11.677-42.4c.263.832.962.306 1.441.461 1.431-.172 2.727.437 4.08.707-.188 1.06 1.05.312 1.241.976.062.213.367.617.736.363.351-.238.022-.568-.021-.859-.023-.153-.024-.312-.036-.469l.479-.002c.036.191.006.488.118.559.907.568 1.534 1.094 1.021 2.396-.539 1.366.012 2.886-.16 4.339-.137 1.148.641 1.838 1.535 2.354.722.412.795.765.141 1.338-.446.393-.823.832-1.407 1.055-.524.201-1.374 2.357-1.233 2.902.089.354.322.422.617.422.499 0 .587.312.564.717-.719.002-1.438.006-2.154.006-.321 0-.677.012-.835-.332-.199-.43.526-.304.445-.758-.595-.191-1.053-.215-1.066.648-.007.424-.273.639-.691.672-.72.059-1.444-.227-2.166.1-.134.062-.537-.143-.584-.295-.107-.35.216-.464.503-.505.372-.054.553-.161.476-.616-.342-2.029-.515-4 .882-5.824.923-1.203.72-2.004-.485-2.832-.382-.262-.396-.69-.592-.871-1-.902-1.351-1.86-.973-3.199.13-.461-.615-.762-.996-1.092-.771-.672-1.475-1.387-1.833-2.37.318-.002.636.004.953.009zm38.852 6.341c.335-.054.482-.09.637-.101.343-.021.832.514.995-.104.146-.554-.45-.707-.85-.812a9.015 9.015 0 00-1.877-.293c-.9-.044-1.327-.49-1.555-1.345-.163-.61-.037-.94.55-1.029.667-.102 1.207-.354 1.616-.907.653-.881 1.692.195 2.4-.451.322.372.616.776.979 1.107.531.489.539 1.774 1.88 1.118.365-.18.23.688.466.994-.283.355-.533.015-.789.028-.423.025-.968-.17-1.17.343-.189.487.394.467.615.69.326.328.462.81.823 1.146.471.44.279.741-.311.676-1.436-.156-2.982.135-4.409-1.06zm14.108 4.767c-1.022-.36-2.057-.702-3.065-1.1-.227-.089-.479-.271-.661-.164-1.396.824-2.294-.56-3.454-.779-.718-.137-.55-.873-.454-1.487.111-.722.678-.897 1.108-.756.961.313 2.055.146 2.867 1.146.542.668 1.72.646 2.577 1.047.427.201.913.404 1.394.556.332.104.964-.255.823.591-.11.676-.401 1-1.135.946zm-63.12-.054c2.303.147 4.576-.457 6.879-.274.506.038 1.159-.229 1 .786-.058.363.489.66.887.888 1.193.687 1.315 1.444.501 2.498-.411.528-.381 1.313-1.02 1.755-.191.134-.354.369-.587.301-1.405-.412-2.751.514-4.137.174-1.229-.3-2.427-.024-3.634.088-1.025.098-1.57-.158-1.521-1.356.034-.813.2-1.737-.49-2.44-.025-.029-.055-.063-.061-.103a1.699 1.699 0 01-.015-.22c1.373-.096.175-1.473.922-1.853.392-.199.817-.34 1.276-.244z"/>
  <path fill="#E02E2D" d="M98.23-197.968c.012.155.013.313.036.469.043.291.369.621.021.859-.369.254-.673-.15-.734-.363-.193-.662-1.431.084-1.243-.976.642-.899 1.278.136 1.92.011zm-312.247 3.316c.042-.287-.078-.688.432-.648.082.006.214.139.221.22.04.51-.362.39-.649.433l-.004-.005z"/>
</svg>
